<svg id="Layer_1" data-name="Layer 1" xmlns="http://www.w3.org/2000/svg" width="214.54541" height="303.84955" viewBox="0 0 214.54541 303.84955">
  <defs>
    <style>
      .cls-1 {
        fill: #f5f5f5;
      }

      .cls-10, .cls-11, .cls-12, .cls-13, .cls-14, .cls-15, .cls-16, .cls-17, .cls-18, .cls-19, .cls-2, .cls-20, .cls-21, .cls-22, .cls-23, .cls-3, .cls-4, .cls-5, .cls-6, .cls-7, .cls-8, .cls-9 {
        fill: #cecece;
      }

      .cls-3 {
        opacity: 0.95238;
      }

      .cls-4 {
        opacity: 0.90476;
      }

      .cls-5 {
        opacity: 0.85714;
      }

      .cls-6 {
        opacity: 0.80952;
      }

      .cls-7 {
        opacity: 0.7619;
      }

      .cls-8 {
        opacity: 0.71429;
      }

      .cls-9 {
        opacity: 0.66667;
      }

      .cls-10 {
        opacity: 0.61905;
      }

      .cls-11 {
        opacity: 0.57143;
      }

      .cls-12 {
        opacity: 0.52381;
      }

      .cls-13 {
        opacity: 0.47619;
      }

      .cls-14 {
        opacity: 0.42857;
      }

      .cls-15 {
        opacity: 0.38095;
      }

      .cls-16 {
        opacity: 0.33333;
      }

      .cls-17 {
        opacity: 0.28571;
      }

      .cls-18 {
        opacity: 0.2381;
      }

      .cls-19 {
        opacity: 0.19048;
      }

      .cls-20 {
        opacity: 0.14286;
      }

      .cls-21 {
        opacity: 0.09524;
      }

      .cls-22 {
        opacity: 0.04762;
      }

      .cls-23 {
        opacity: 0;
      }

      .cls-24 {
        fill: #0050ac;
      }
    </style>
  </defs>
  <g>
    <path class="cls-1" d="M217.08565,109.26719c0-58.37787-47.76367-106.1416-106.1416-106.1416h-2.2622c-58.37793,0-106.14161,47.76373-106.14161,106.1416V306.97513H217.08565Z" transform="translate(-2.54024 -3.12559)"/>
    <g>
      <path class="cls-2" d="M36.54266,306.97513l.13321-188.85192c0-40.95089,33.64007-74.14808,75.13722-74.14806s75.13716,33.19725,75.13714,74.14814l-.0001,188.85184" transform="translate(-2.54024 -3.12559)"/>
      <path class="cls-3" d="M38.194,306.97513l.12688-188.85192c0-40.05264,32.90527-72.5247,73.49217-72.52468s73.49213,32.47211,73.49211,72.52475l.00924,188.8491" transform="translate(-2.54024 -3.12559)"/>
      <path class="cls-4" d="M39.84541,306.97513,39.966,118.1232c0-39.15439,32.17046-70.90132,71.84713-70.9013s71.84709,31.747,71.84707,70.90137l.01858,188.84636" transform="translate(-2.54024 -3.12559)"/>
      <path class="cls-5" d="M41.49679,306.97513l.1142-188.85194c0-38.25613,31.43565-69.27793,70.20209-69.27791s70.20205,31.02184,70.202,69.278l.02792,188.84362" transform="translate(-2.54024 -3.12559)"/>
      <path class="cls-6" d="M43.14817,306.97513,43.256,118.12318c0-37.35788,30.70084-67.65454,68.55705-67.65452s68.557,30.29671,68.557,67.65459l.03726,188.84088" transform="translate(-2.54024 -3.12559)"/>
      <path class="cls-7" d="M44.79955,306.97513l.10152-188.85195c0-36.45964,29.966-66.03117,66.912-66.03115s66.912,29.57158,66.912,66.03121l.0466,188.83814" transform="translate(-2.54024 -3.12559)"/>
      <path class="cls-8" d="M46.45093,306.97513l.09518-188.852c0-35.56138,29.23123-64.40778,65.267-64.40776S177.08,82.56185,177.08,118.12323l.05594,188.83539" transform="translate(-2.54024 -3.12559)"/>
      <path class="cls-9" d="M48.10231,306.97513l.08883-188.852c0-34.66313,28.49643-62.78439,63.62194-62.78437s63.62189,28.1213,63.62187,62.78443l.06529,188.83265" transform="translate(-2.54024 -3.12559)"/>
      <path class="cls-10" d="M49.75368,306.97513l.0825-188.852c0-33.76487,27.76162-61.161,61.9769-61.161s61.97685,27.39618,61.97683,61.16105l.07463,188.82991" transform="translate(-2.54024 -3.12559)"/>
      <path class="cls-11" d="M51.40506,306.97513l.07616-188.852c0-32.86663,27.02682-59.53763,60.33186-59.53761s60.33181,26.671,60.33179,59.53766l.084,188.82717" transform="translate(-2.54024 -3.12559)"/>
      <path class="cls-12" d="M53.05644,306.97513l.06982-188.852c0-31.96838,26.292-57.91424,58.68682-57.91422s58.68677,25.9459,58.68675,57.91428l.09331,188.82442" transform="translate(-2.54024 -3.12559)"/>
      <path class="cls-13" d="M54.70782,306.97513l.06348-188.852c0-31.07012,25.5572-56.29085,57.04178-56.29084s57.04173,25.22077,57.04171,56.2909l.10265,188.82168" transform="translate(-2.54024 -3.12559)"/>
      <path class="cls-14" d="M56.3592,306.97513l.05714-188.852c0-30.17187,24.82239-54.66747,55.39674-54.66745s55.39669,24.49564,55.39668,54.66751l.112,188.81894" transform="translate(-2.54024 -3.12559)"/>
      <path class="cls-15" d="M58.01058,306.97513l.0508-188.852c0-29.27362,24.08759-53.04409,53.7517-53.04407s53.75165,23.7705,53.75164,53.04412l.12132,188.81619" transform="translate(-2.54024 -3.12559)"/>
      <path class="cls-16" d="M59.662,306.97513l.04446-188.852c0-28.37537,23.35278-51.4207,52.10665-51.42069s52.10662,23.04537,52.10661,51.42074l.13066,188.81345" transform="translate(-2.54024 -3.12559)"/>
      <path class="cls-17" d="M61.31333,306.97513l.03813-188.852c0-27.47712,22.618-49.79731,50.46161-49.7973s50.46158,22.32023,50.46157,49.79735l.14,188.81071" transform="translate(-2.54024 -3.12559)"/>
      <path class="cls-18" d="M62.96471,306.97513l.03179-188.852c0-26.57887,21.88316-48.17394,48.81657-48.17392s48.81654,21.5951,48.81653,48.174l.14934,188.808" transform="translate(-2.54024 -3.12559)"/>
      <path class="cls-19" d="M64.61609,306.97513l.02545-188.852c0-25.68062,21.14836-46.55055,47.17153-46.55054s47.1715,20.87,47.17149,46.55058l.15868,188.80523" transform="translate(-2.54024 -3.12559)"/>
      <path class="cls-20" d="M66.26747,306.97513l.01911-188.852c0-24.78236,20.41355-44.92716,45.52649-44.92715s45.52646,20.14483,45.52645,44.92719l.168,188.80249" transform="translate(-2.54024 -3.12559)"/>
      <path class="cls-21" d="M67.91885,306.97513l.01277-188.85206c0-23.88411,19.67874-43.30378,43.88145-43.30376s43.88142,19.41969,43.88141,43.30381l.17736,188.79974" transform="translate(-2.54024 -3.12559)"/>
      <path class="cls-22" d="M69.57023,306.97513l.00643-188.85206c0-22.98587,18.94393-41.6804,42.23641-41.68039s42.23638,18.69456,42.23637,41.68043l.1867,188.797" transform="translate(-2.54024 -3.12559)"/>
      <path class="cls-23" d="M71.2216,306.97513l.0001-188.85207c0-22.08761,18.20913-40.057,40.59137-40.057s40.59134,17.96943,40.59133,40.057l.196,188.79425" transform="translate(-2.54024 -3.12559)"/>
    </g>
    <path class="cls-24" d="M111.7059,162.94246a5.42347,5.42347,0,0,1,3.8453,1.59233l33.398,33.39837a5.43948,5.43948,0,1,1-7.69232,7.69284l-29.551-29.55272L82.15473,205.625a5.43923,5.43923,0,0,1-7.69163-7.69284l33.3975-33.39837A5.42345,5.42345,0,0,1,111.7059,162.94246Z" transform="translate(-2.54024 -3.12559)"/>
  </g>
</svg>
