<svg id="Layer_1" data-name="Layer 1" xmlns="http://www.w3.org/2000/svg" width="0.75292in" height="0.75298in" viewBox="0 0 54.20991 54.21472">
  <path d="M50.84188,2.8667a8.31631,8.31631,0,0,0-11.76119,0L6.11009,35.8373a1.84763,1.84763,0,0,0-.47429.81358L1.30007,52.30383a1.84767,1.84767,0,0,0,2.274,2.27471l15.653-4.33645a1.84768,1.84768,0,0,0,.81358-.47429L53.01046,16.79648a8.32546,8.32546,0,0,0,0-11.76119Zm-40.705,34.17184L37.12073,10.05393l8.7025,8.7025L18.83862,45.741ZM8.39851,40.52676l6.95262,6.95334L5.734,50.14463ZM50.39719,14.1832l-1.96,1.96L39.734,7.43994l1.96068-1.96a4.61977,4.61977,0,0,1,6.53319,0l2.16931,2.16859A4.62676,4.62676,0,0,1,50.39719,14.1832Z" transform="translate(-1.23264 -0.43083)" fill="#0050ac"/>
</svg>
