<svg id="Layer_1" data-name="Layer 1" xmlns="http://www.w3.org/2000/svg" width="90.95545" height="93.48277" viewBox="0 0 90.95545 93.48277">
  <defs>
    <style>
      .cls-1 {
        fill: #fff;
      }
    </style>
  </defs>
  <path class="cls-1" d="M92.23431,60.98373l-9.86238-7.73579a36.70679,36.70679,0,0,0,.32712-4.55729,36.707,36.707,0,0,0-.32712-4.5573l9.88582-7.73578a2.3307,2.3307,0,0,0,.5609-2.99138L83.47028,17.21027a2.31211,2.31211,0,0,0-2.85115-1.005L68.98051,20.90278a35.46578,35.46578,0,0,0-7.89924-4.604L59.32846,3.9124a2.40428,2.40428,0,0,0-2.33714-1.96314H38.29481a2.36012,2.36012,0,0,0-2.3137,1.96314l-1.7528,12.38642a34.589,34.589,0,0,0-7.89924,4.604L14.69045,16.20526a2.33831,2.33831,0,0,0-2.85116,1.005L2.4907,33.40619a2.341,2.341,0,0,0,.5609,2.99138L12.914,44.13335a36.707,36.707,0,0,0-.32712,4.5573,36.70679,36.70679,0,0,0,.32712,4.55729L3.0516,60.98373a2.33071,2.33071,0,0,0-.5609,2.99138L11.83907,80.171a2.31211,2.31211,0,0,0,2.85116,1.005l11.63862-4.69752a35.46578,35.46578,0,0,0,7.89924,4.604l1.7528,12.38641a2.36012,2.36012,0,0,0,2.3137,1.96314H56.99111a2.36012,2.36012,0,0,0,2.3137-1.96314l1.7528-12.38641a34.58954,34.58954,0,0,0,7.89924-4.604L80.59547,81.176a2.33831,2.33831,0,0,0,2.85116-1.005L92.795,63.97511A2.34081,2.34081,0,0,0,92.23431,60.98373ZM47.643,65.05023A16.35947,16.35947,0,1,1,64.00254,48.69087,16.34766,16.34766,0,0,1,47.643,65.05023Z" transform="translate(-2.17695 -1.94926)"/>
</svg>
