<?xml version="1.0" encoding="utf-8"?>
<!-- Generator: Adobe Illustrator 25.2.0, SVG Export Plug-In . SVG Version: 6.00 Build 0)  -->
<svg version="1.1" id="Layer_1" xmlns="http://www.w3.org/2000/svg" xmlns:xlink="http://www.w3.org/1999/xlink" x="0px" y="0px"
	 viewBox="0 0 300 300" style="enable-background:new 0 0 300 300;" xml:space="preserve">
<style type="text/css">
	.st0{fill:#F5F5F5;}
	.st1{fill:url(#SVGID_1_);}
	.st2{opacity:0.9524;fill:url(#SVGID_2_);}
	.st3{opacity:0.9048;fill:url(#SVGID_3_);}
	.st4{opacity:0.8571;fill:url(#SVGID_4_);}
	.st5{opacity:0.8095;fill:url(#SVGID_5_);}
	.st6{opacity:0.7619;fill:url(#SVGID_6_);}
	.st7{opacity:0.7143;fill:url(#SVGID_7_);}
	.st8{opacity:0.6667;fill:url(#SVGID_8_);}
	.st9{opacity:0.619;fill:url(#SVGID_9_);}
	.st10{opacity:0.5714;fill:url(#SVGID_10_);}
	.st11{opacity:0.5238;fill:url(#SVGID_11_);}
	.st12{opacity:0.4762;fill:url(#SVGID_12_);}
	.st13{opacity:0.4286;fill:url(#SVGID_13_);}
	.st14{opacity:0.381;fill:url(#SVGID_14_);}
	.st15{opacity:0.3333;fill:url(#SVGID_15_);}
	.st16{opacity:0.2857;fill:url(#SVGID_16_);}
	.st17{opacity:0.2381;fill:url(#SVGID_17_);}
	.st18{opacity:0.1905;fill:url(#SVGID_18_);}
	.st19{opacity:0.1429;fill:url(#SVGID_19_);}
	.st20{opacity:0.0952;fill:url(#SVGID_20_);}
	.st21{opacity:0.0476;fill:url(#SVGID_21_);}
	.st22{opacity:0;fill:#F4F4F4;}
</style>
<g>
	<circle class="st0" cx="149.26" cy="151.59" r="78.5"/>
	<g>
		
			<linearGradient id="SVGID_1_" gradientUnits="userSpaceOnUse" x1="535.123" y1="2425.2598" x2="578.0582" y2="2543.2231" gradientTransform="matrix(-4.901923e-07 1 -1 -4.901923e-07 2633.5007 -404.9995)">
			<stop  offset="0.1" style="stop-color:#C8CCD7"/>
			<stop  offset="0.9" style="stop-color:#FFFFFF"/>
		</linearGradient>
		<circle class="st1" cx="149.26" cy="151.59" r="62.75"/>
		
			<linearGradient id="SVGID_2_" gradientUnits="userSpaceOnUse" x1="417.2136" y1="2438.2422" x2="461.2526" y2="2559.2385" gradientTransform="matrix(0.0476 0.9524 -0.9524 0.0476 2508.0959 -385.7138)">
			<stop  offset="0.1" style="stop-color:#CACED8"/>
			<stop  offset="0.9" style="stop-color:#FEFEFE"/>
		</linearGradient>
		<circle class="st2" cx="149.26" cy="151.59" r="61.38"/>
		
			<linearGradient id="SVGID_3_" gradientUnits="userSpaceOnUse" x1="286.713" y1="2439.0959" x2="331.8376" y2="2563.075" gradientTransform="matrix(0.0952 0.9048 -0.9048 0.0952 2382.6912 -366.4281)">
			<stop  offset="0.1" style="stop-color:#CCD0D9"/>
			<stop  offset="0.9" style="stop-color:#FEFEFE"/>
		</linearGradient>
		<circle class="st3" cx="149.26" cy="151.59" r="60"/>
		
			<linearGradient id="SVGID_4_" gradientUnits="userSpaceOnUse" x1="144.2346" y1="2423.8413" x2="190.393" y2="2550.6604" gradientTransform="matrix(0.1429 0.8571 -0.8571 0.1429 2257.2864 -347.1424)">
			<stop  offset="0.1" style="stop-color:#CED2DB"/>
			<stop  offset="0.9" style="stop-color:#FDFDFD"/>
		</linearGradient>
		<circle class="st4" cx="149.26" cy="151.59" r="58.63"/>
		
			<linearGradient id="SVGID_5_" gradientUnits="userSpaceOnUse" x1="-8.3927" y1="2387.9893" x2="38.7041" y2="2517.3867" gradientTransform="matrix(0.1905 0.8095 -0.8095 0.1905 2131.8816 -327.8567)">
			<stop  offset="0.1" style="stop-color:#D0D4DC"/>
			<stop  offset="0.9" style="stop-color:#FDFDFD"/>
		</linearGradient>
		<circle class="st5" cx="149.26" cy="151.59" r="57.25"/>
		
			<linearGradient id="SVGID_6_" gradientUnits="userSpaceOnUse" x1="-167.692" y1="2326.8943" x2="-119.8063" y2="2458.4592" gradientTransform="matrix(0.2381 0.7619 -0.7619 0.2381 2006.4768 -308.571)">
			<stop  offset="0.1" style="stop-color:#D3D6DE"/>
			<stop  offset="0.9" style="stop-color:#FCFCFC"/>
		</linearGradient>
		<circle class="st6" cx="149.26" cy="151.59" r="55.88"/>
		
			<linearGradient id="SVGID_7_" gradientUnits="userSpaceOnUse" x1="-328.187" y1="2236.3818" x2="-279.725" y2="2369.53" gradientTransform="matrix(0.2857 0.7143 -0.7143 0.2857 1881.0719 -289.2853)">
			<stop  offset="0.1" style="stop-color:#D5D8DF"/>
			<stop  offset="0.9" style="stop-color:#FCFCFC"/>
		</linearGradient>
		<circle class="st7" cx="149.26" cy="151.59" r="54.51"/>
		
			<linearGradient id="SVGID_8_" gradientUnits="userSpaceOnUse" x1="-482.3155" y1="2113.6641" x2="-433.558" y2="2247.624" gradientTransform="matrix(0.3333 0.6667 -0.6667 0.3333 1755.6671 -269.9996)">
			<stop  offset="0.1" style="stop-color:#D7DAE0"/>
			<stop  offset="0.9" style="stop-color:#FBFBFB"/>
		</linearGradient>
		<circle class="st8" cx="149.26" cy="151.59" r="53.13"/>
		
			<linearGradient id="SVGID_9_" gradientUnits="userSpaceOnUse" x1="-620.8315" y1="1958.4176" x2="-572.1257" y2="2092.2356" gradientTransform="matrix(0.381 0.619 -0.619 0.381 1630.2623 -250.7139)">
			<stop  offset="0.1" style="stop-color:#D9DBE2"/>
			<stop  offset="0.9" style="stop-color:#FBFBFB"/>
		</linearGradient>
		<circle class="st9" cx="149.26" cy="151.59" r="51.76"/>
		
			<linearGradient id="SVGID_10_" gradientUnits="userSpaceOnUse" x1="-733.8482" y1="1773.7206" x2="-685.5963" y2="1906.2917" gradientTransform="matrix(0.4286 0.5714 -0.5714 0.4286 1504.8575 -231.4283)">
			<stop  offset="0.1" style="stop-color:#DBDDE3"/>
			<stop  offset="0.9" style="stop-color:#FAFAFA"/>
		</linearGradient>
		<circle class="st10" cx="149.26" cy="151.59" r="50.39"/>
		
			<linearGradient id="SVGID_11_" gradientUnits="userSpaceOnUse" x1="-812.4532" y1="1566.422" x2="-765.0897" y2="1696.5525" gradientTransform="matrix(0.4762 0.5238 -0.5238 0.4762 1379.4528 -212.1426)">
			<stop  offset="0.1" style="stop-color:#DDDFE5"/>
			<stop  offset="0.9" style="stop-color:#FAFAFA"/>
		</linearGradient>
		<circle class="st11" cx="149.26" cy="151.59" r="49.01"/>
		
			<linearGradient id="SVGID_12_" gradientUnits="userSpaceOnUse" x1="-850.497" y1="1346.5862" x2="-804.4575" y2="1473.0787" gradientTransform="matrix(0.5238 0.4762 -0.4762 0.5238 1254.048 -192.8569)">
			<stop  offset="0.1" style="stop-color:#DFE1E6"/>
			<stop  offset="0.9" style="stop-color:#F9F9F9"/>
		</linearGradient>
		<path class="st12" d="M101.62,151.59c0-26.29,21.34-47.64,47.64-47.64s47.64,21.34,47.64,47.64c0,26.29-21.34,47.64-47.64,47.64
			S101.62,177.88,101.62,151.59z"/>
		
			<linearGradient id="SVGID_13_" gradientUnits="userSpaceOnUse" x1="-845.9321" y1="1125.9879" x2="-801.6184" y2="1247.7388" gradientTransform="matrix(0.5714 0.4286 -0.4286 0.5714 1128.6432 -173.5712)">
			<stop  offset="0.1" style="stop-color:#E1E3E7"/>
			<stop  offset="0.9" style="stop-color:#F9F9F9"/>
		</linearGradient>
		<path class="st13" d="M103,151.59c0-25.53,20.73-46.26,46.26-46.26c25.53,0,46.26,20.73,46.26,46.26
			c0,25.53-20.73,46.26-46.26,46.26C123.73,197.85,103,177.12,103,151.59z"/>
		
			<linearGradient id="SVGID_14_" gradientUnits="userSpaceOnUse" x1="-801.1661" y1="916.0886" x2="-758.9146" y2="1032.1737" gradientTransform="matrix(0.619 0.381 -0.381 0.619 1003.2384 -154.2855)">
			<stop  offset="0.1" style="stop-color:#E3E5E9"/>
			<stop  offset="0.9" style="stop-color:#F8F8F8"/>
		</linearGradient>
		<path class="st14" d="M104.37,151.59c0-24.77,20.12-44.89,44.89-44.89c24.77,0,44.89,20.12,44.89,44.89
			c0,24.77-20.12,44.89-44.89,44.89S104.37,176.36,104.37,151.59z"/>
		
			<linearGradient id="SVGID_15_" gradientUnits="userSpaceOnUse" x1="-722.3058" y1="726.1859" x2="-682.3663" y2="835.919" gradientTransform="matrix(0.6667 0.3333 -0.3333 0.6667 877.8336 -134.9998)">
			<stop  offset="0.1" style="stop-color:#E5E7EA"/>
			<stop  offset="0.9" style="stop-color:#F8F8F8"/>
		</linearGradient>
		<path class="st15" d="M105.74,151.59c0-24.01,19.5-43.52,43.52-43.52c24.01,0,43.52,19.5,43.52,43.52
			c0,24.01-19.5,43.52-43.52,43.52S105.74,175.6,105.74,151.59z"/>
		
			<linearGradient id="SVGID_16_" gradientUnits="userSpaceOnUse" x1="-617.6565" y1="562.3173" x2="-580.1848" y2="665.2701" gradientTransform="matrix(0.7143 0.2857 -0.2857 0.7143 752.4288 -115.7141)">
			<stop  offset="0.1" style="stop-color:#E7E9EC"/>
			<stop  offset="0.9" style="stop-color:#F7F7F7"/>
		</linearGradient>
		<path class="st16" d="M107.12,151.59c0-23.25,18.89-42.14,42.14-42.14c23.25,0,42.14,18.89,42.14,42.14
			c0,23.25-18.89,42.14-42.14,42.14C126.01,193.73,107.12,174.84,107.12,151.59z"/>
		
			<linearGradient id="SVGID_17_" gradientUnits="userSpaceOnUse" x1="-496.0705" y1="427.0933" x2="-461.1339" y2="523.0809" gradientTransform="matrix(0.7619 0.2381 -0.2381 0.7619 627.024 -96.4284)">
			<stop  offset="0.1" style="stop-color:#EAEBED"/>
			<stop  offset="0.9" style="stop-color:#F7F7F7"/>
		</linearGradient>
		<path class="st17" d="M108.49,151.59c0-22.49,18.28-40.77,40.77-40.77c22.49,0,40.77,18.28,40.77,40.77
			c0,22.49-18.27,40.77-40.77,40.77C126.77,192.36,108.49,174.08,108.49,151.59z"/>
		
			<linearGradient id="SVGID_18_" gradientUnits="userSpaceOnUse" x1="-365.6427" y1="320.256" x2="-333.2369" y2="409.2902" gradientTransform="matrix(0.8095 0.1905 -0.1905 0.8095 501.6192 -77.1428)">
			<stop  offset="0.1" style="stop-color:#ECECEE"/>
			<stop  offset="0.9" style="stop-color:#F6F6F6"/>
		</linearGradient>
		<path class="st18" d="M109.86,151.59c0-21.73,17.66-39.39,39.39-39.39s39.39,17.66,39.39,39.39c0,21.73-17.66,39.39-39.39,39.39
			S109.86,173.32,109.86,151.59z"/>
		
			<linearGradient id="SVGID_19_" gradientUnits="userSpaceOnUse" x1="-232.9669" y1="239.5675" x2="-203.0336" y2="321.8086" gradientTransform="matrix(0.8571 0.1429 -0.1429 0.8571 376.2144 -57.8571)">
			<stop  offset="0.1" style="stop-color:#EEEEF0"/>
			<stop  offset="0.9" style="stop-color:#F6F6F6"/>
		</linearGradient>
		<path class="st19" d="M111.24,151.59c0-20.97,17.05-38.02,38.02-38.02c20.97,0,38.02,17.05,38.02,38.02
			c0,20.97-17.05,38.02-38.02,38.02C128.29,189.61,111.24,172.56,111.24,151.59z"/>
		
			<linearGradient id="SVGID_20_" gradientUnits="userSpaceOnUse" x1="-102.9079" y1="181.7021" x2="-75.3496" y2="257.4181" gradientTransform="matrix(0.9048 0.0952 -0.0952 0.9048 250.8096 -38.5714)">
			<stop  offset="0.1" style="stop-color:#F0F0F1"/>
			<stop  offset="0.9" style="stop-color:#F5F5F5"/>
		</linearGradient>
		<path class="st20" d="M112.61,151.59c0-20.21,16.43-36.65,36.65-36.65c20.21,0,36.65,16.43,36.65,36.65
			c0,20.21-16.43,36.65-36.65,36.65C129.05,188.24,112.61,171.8,112.61,151.59z"/>
		
			<linearGradient id="SVGID_21_" gradientUnits="userSpaceOnUse" x1="21.2799" y1="142.9588" x2="46.5859" y2="212.4865" gradientTransform="matrix(0.9524 0.0476 -0.0476 0.9524 125.4048 -19.2857)">
			<stop  offset="0.1" style="stop-color:#F2F2F3"/>
			<stop  offset="0.9" style="stop-color:#F5F5F5"/>
		</linearGradient>
		<path class="st21" d="M113.99,151.59c0-19.45,15.82-35.27,35.27-35.27c19.45,0,35.27,15.82,35.27,35.27
			c0,19.45-15.82,35.27-35.27,35.27C129.81,186.86,113.99,171.04,113.99,151.59z"/>
		<path class="st22" d="M115.36,151.59c0-18.69,15.21-33.9,33.9-33.9s33.9,15.21,33.9,33.9c0,18.69-15.21,33.9-33.9,33.9
			C130.57,185.49,115.36,170.28,115.36,151.59z"/>
	</g>
</g>
</svg>
