<svg id="Layer_1" data-name="Layer 1" xmlns="http://www.w3.org/2000/svg" width="98.97394" height="70.94245" viewBox="0 0 98.97394 70.94245">
  <g>
    <path d="M51.66273,68.32435a10.04646,10.04646,0,1,1,0-14.20853A10.05826,10.05826,0,0,1,51.66273,68.32435Z" transform="translate(-0.50943 -0.47482)" fill="#34c759"/>
    <path d="M63.98185,47.08873a3.74236,3.74236,0,0,1-5.292,0,20.00759,20.00759,0,0,0-28.26272,0,3.742,3.742,0,0,1-5.292-5.292,27.4998,27.4998,0,0,1,38.84676,0A3.74174,3.74174,0,0,1,63.98185,47.08873Z" transform="translate(-0.50943 -0.47482)" fill="#34c759"/>
    <path d="M75.81724,35.25334a3.74174,3.74174,0,0,1-5.292,0,36.76417,36.76417,0,0,0-51.9335,0,3.742,3.742,0,1,1-5.292-5.292,44.25638,44.25638,0,0,1,62.51754,0A3.74174,3.74174,0,0,1,75.81724,35.25334Z" transform="translate(-0.50943 -0.47482)" fill="#34c759"/>
    <path d="M87.51137,23.55921a3.74236,3.74236,0,0,1-5.292,0,53.32068,53.32068,0,0,0-75.32176,0,3.742,3.742,0,1,1-5.292-5.292,60.74293,60.74293,0,0,1,85.90581,0A3.74175,3.74175,0,0,1,87.51137,23.55921Z" transform="translate(-0.50943 -0.47482)" fill="#34c759"/>
    <g>
      <path d="M78.11351,71.41727a21.45333,21.45333,0,0,1-15.1108-6.133,20.64256,20.64256,0,0,1,0-29.61287,21.68187,21.68187,0,0,1,30.22159,0,20.64256,20.64256,0,0,1,0,29.61287A21.45332,21.45332,0,0,1,78.11351,71.41727Z" transform="translate(-0.50943 -0.47482)" fill="#34c759"/>
      <path d="M92.32111,45.287,76.77765,60.51733a3.55012,3.55012,0,0,1-4.948,0L63.90777,52.755a3.37965,3.37965,0,0,1,0-4.84862,3.54916,3.54916,0,0,1,4.948.00025l5.44758,5.33761,13.06919-12.806a3.55011,3.55011,0,0,1,4.948,0A3.38337,3.38337,0,0,1,92.32111,45.287Z" transform="translate(-0.50943 -0.47482)" fill="#fff"/>
    </g>
  </g>
</svg>
