<svg id="Layer_1" data-name="Layer 1" xmlns="http://www.w3.org/2000/svg" width="53.07194" height="53.07194" viewBox="0 0 53.07194 53.07194">
  <defs>
    <style>
      .cls-1 {
        fill: #0050ac;
      }
    </style>
  </defs>
  <g>
    <path class="cls-1" d="M20.50723,48.42449a8.84844,8.84844,0,0,0-6.634-8.56666V6.40924a2.21135,2.21135,0,0,0-4.4227-.0001V39.85773a8.84632,8.84632,0,1,0,11.05669,8.56676Zm-13.268,0a4.42265,4.42265,0,1,1,4.4226,4.4227A4.42228,4.42228,0,0,1,7.23924,48.42449Z" transform="translate(-2.81655 -4.19784)"/>
    <path class="cls-1" d="M38.19781,13.04313a8.84843,8.84843,0,0,0,6.634,8.56666v33.4487a2.21135,2.21135,0,0,0,4.4227,0V21.6099a8.84633,8.84633,0,1,0-11.05669-8.56677Zm13.268,0A4.42265,4.42265,0,1,1,47.0432,8.62044,4.42228,4.42228,0,0,1,51.46579,13.04313Z" transform="translate(-2.81655 -4.19784)"/>
    <path class="cls-1" d="M27.14122,6.40914v15.758a8.84818,8.84818,0,0,0,0,17.13332v15.758a2.2113,2.2113,0,0,0,4.4226,0V39.30058a8.84818,8.84818,0,0,0,0-17.13332V6.40935a2.2113,2.2113,0,0,0-4.4226-.00021Zm6.634,24.32467a4.4227,4.4227,0,1,1-4.42269-4.42269A4.42228,4.42228,0,0,1,33.77521,30.73381Z" transform="translate(-2.81655 -4.19784)"/>
  </g>
</svg>
