<svg id="Layer_1" data-name="Layer 1" xmlns="http://www.w3.org/2000/svg" width="146.07795" height="117.37486" viewBox="0 0 146.07795 117.37486">
  <defs>
    <style>
      .cls-1 {
        fill: #34c759;
      }
    </style>
  </defs>
  <g>
    <path class="cls-1" d="M86.65029,114.76548a16.65833,16.65833,0,1,1,0-23.55958A16.67791,16.67791,0,0,1,86.65029,114.76548Z" transform="translate(-1.83153 -2.26221)"/>
    <path class="cls-1" d="M107.077,79.55408a6.20533,6.20533,0,0,1-8.77486,0,33.17515,33.17515,0,0,0-46.86322,0A6.20476,6.20476,0,1,1,42.664,70.77922a45.59823,45.59823,0,0,1,64.41293,0A6.20429,6.20429,0,0,1,107.077,79.55408Z" transform="translate(-1.83153 -2.26221)"/>
    <path class="cls-1" d="M126.70157,59.92948a6.20428,6.20428,0,0,1-8.77485,0,60.9597,60.9597,0,0,0-86.11243,0,6.20476,6.20476,0,1,1-8.77486-8.77486,73.3828,73.3828,0,0,1,103.66214,0A6.20429,6.20429,0,0,1,126.70157,59.92948Z" transform="translate(-1.83153 -2.26221)"/>
    <path class="cls-1" d="M146.092,40.5391a6.20531,6.20531,0,0,1-8.77485,0,88.41257,88.41257,0,0,0-124.89319,0,6.20476,6.20476,0,0,1-8.77486-8.77486,100.71959,100.71959,0,0,1,142.4429,0A6.20429,6.20429,0,0,1,146.092,40.5391Z" transform="translate(-1.83153 -2.26221)"/>
  </g>
</svg>
