<svg id="Layer_1" data-name="Layer 1" xmlns="http://www.w3.org/2000/svg" width="48.5" height="48.5" viewBox="0 0 48.5 48.5">
  <g>
    <path d="M16.948,41.198a8.08619,8.08619,0,0,0-6.0625-7.82868V2.80215a2.02085,2.02085,0,0,0-4.0417-.0001V33.36918A8.08425,8.08425,0,1,0,16.948,41.198Zm-12.125,0a4.04165,4.04165,0,1,1,4.0416,4.0417A4.04132,4.04132,0,0,1,4.82295,41.198Z" transform="translate(-0.78125 -0.78125)" fill="#00476a"/>
    <path d="M33.11455,8.86455a8.08618,8.08618,0,0,0,6.0625,7.82868V47.26045a2.02085,2.02085,0,0,0,4.0417,0V16.69332a8.08425,8.08425,0,1,0-10.1042-7.82877Zm12.125,0a4.04165,4.04165,0,1,1-4.0416-4.0417A4.04131,4.04131,0,0,1,45.23955,8.86455Z" transform="translate(-0.78125 -0.78125)" fill="#00476a"/>
    <path d="M23.01045,2.80205V17.20257a8.08595,8.08595,0,0,0,0,15.65736V47.26045a2.0208,2.0208,0,0,0,4.0416,0V32.86a8.08594,8.08594,0,0,0,0-15.65735V2.80224a2.0208,2.0208,0,0,0-4.0416-.00019Zm6.0625,22.2292a4.0417,4.0417,0,1,1-4.0417-4.0417A4.04132,4.04132,0,0,1,29.073,25.03125Z" transform="translate(-0.78125 -0.78125)" fill="#00476a"/>
  </g>
</svg>
