<svg id="Layer_1" data-name="Layer 1" xmlns="http://www.w3.org/2000/svg" width="24.9375" height="24.9375" viewBox="0 0 24.9375 24.9375">
  <g>
    <path d="M8.34377,20.81252A4.15773,4.15773,0,0,0,5.22658,16.7872V1.07035a1.03907,1.03907,0,0,0-2.07814,0V16.78716a4.15672,4.15672,0,1,0,5.19533,4.02536Zm-6.23438,0a2.07812,2.07812,0,1,1,2.07809,2.07814A2.078,2.078,0,0,1,2.10939,20.81252Z" transform="translate(-0.03125 -0.03125)" fill="#00476a"/>
    <path d="M16.65623,4.18748A4.15773,4.15773,0,0,0,19.77342,8.2128V23.9297a1.03907,1.03907,0,0,0,2.07814,0V8.21284a4.15672,4.15672,0,1,0-5.19533-4.02536Zm6.23438,0a2.07812,2.07812,0,1,1-2.07809-2.07814A2.078,2.078,0,0,1,22.89061,4.18748Z" transform="translate(-0.03125 -0.03125)" fill="#00476a"/>
    <path d="M11.461,1.0703V8.47469a4.15759,4.15759,0,0,0,0,8.05062V23.9297a1.039,1.039,0,0,0,2.0781,0V16.52536a4.15759,4.15759,0,0,0,0-8.05062V1.07039A1.03905,1.03905,0,0,0,11.461,1.0703ZM14.57814,12.5A2.07814,2.07814,0,1,1,12.5,10.42186,2.07794,2.07794,0,0,1,14.57814,12.5Z" transform="translate(-0.03125 -0.03125)" fill="#00476a"/>
  </g>
</svg>
