<svg id="Layer_1" data-name="Layer 1" xmlns="http://www.w3.org/2000/svg" width="356.54358" height="76.0767" viewBox="0 0 356.54358 76.0767">
  <defs>
    <style>
      .cls-1 {
        fill: #fff;
      }
    </style>
  </defs>
  <g>
    <path class="cls-1" d="M108.62706,25.578a8.159,8.159,0,1,0-8.15975-8.15979A8.15917,8.15917,0,0,0,108.62706,25.578Zm-9.10481,3.3308-7.19062,34.198s-3.52277,12.87545,8.7178,12.87545h3.19l9.8834-47.07349ZM183.19477,1.40855c-8.99442,0-13.46965,10.93726-13.46965,10.93726l-20.11,41.30552-1.849-42.22933s-.04382-10.01345-9.20313-10.01345H125.45325L109.88811,75.98226H123.7236l11.85194-62.31351,2.69572,62.31351h7.20424c8.057,0,11.62513-8.98993,11.62513-8.98993l25.17188-52.86547L167.572,75.98226h13.98985L197.17843,1.40855ZM357.62431,20.9425a21.00063,21.00063,0,0,0-2.92254-11.34382,15.12355,15.12355,0,0,0-7.682-6.43478q-4.75817-1.75311-13.30183-1.75535H300.60239L296.29808,21.96h-5.97063c-7.1242,0-12.19363,8.76916-12.19363,8.76916l-8.261,14.02q-.712,1.17021-3.84031,6.89274-3.12744,5.72192-3.53485,6.58744-.30607-3.15462-1.8823-12.71831L258.11606,30.0775S256.63753,21.96,248.89343,21.96H242.4557l10.83446,54.02228h5.59551c6.99415,0,12.10894-8.364,12.10894-8.364l23.80048-38.4782-9.80924,46.84219h15.36263l6.46033-30.87777h6.25628q5.443,0,7.63062,1.47559,3.56055,2.49229,6.71454,9.71558,2.83251,6.53355,4.75344,11.38159c1.3426,3.3853,4.578,8.305,13.07192,8.305h6.43928q-6.31155-15.97045-11.44662-24.7229a30.11661,30.11661,0,0,0-5.54426-6.96829q11.54577-1.47187,17.24494-7.65492Q357.62346,30.45394,357.62431,20.9425Zm-17.5987,6.8672a13.16861,13.16861,0,0,1-6.33338,4.62943q-4.04359,1.47861-16.40581,1.474h-8.13719l4.16992-20.04192h16.88808q6.76509,0,8.8009,1.22169a6.70275,6.70275,0,0,1,3.30649,6.105A11.09754,11.09754,0,0,1,340.02561,27.8097Zm-120.752-7.12126q-13.78634,0-22.25538,8.92786-8.47059,8.92646-8.46974,23.93223a25.703,25.703,0,0,0,2.90133,12.00459,19.89746,19.89746,0,0,0,8.79935,8.64809,29.01766,29.01766,0,0,0,13.53,3.05259q14.09033,0,22.48374-9.56292a33.26875,33.26875,0,0,0,8.39419-22.6878q0-11.13984-6.71439-17.7272Q231.22753,20.68775,219.27357,20.68844Zm5.086,40.13385a12.38523,12.38523,0,0,1-10.07089,5.13894,10.3546,10.3546,0,0,1-7.93452-3.40775q-3.1567-3.40867-3.15524-9.20761a30.05336,30.05336,0,0,1,2.035-10.25079,18.79463,18.79463,0,0,1,5.69691-8.49389,13.07673,13.07673,0,0,1,8.39419-2.92563,10.38506,10.38506,0,0,1,7.80742,3.12968,11.455,11.455,0,0,1,3.02688,8.31554Q230.15927,53.54838,224.35956,60.82229Z" transform="translate(-1.08073 -1.29283)"/>
    <g>
      <path class="cls-1" d="M71.547,21.57c.07361.11.1101.1699.1101.1699l-.0069.00141a30.45847,30.45847,0,0,1,5.193,12.83819c.02473.161.04332.324.066.48568.042.29853.08121.59777.11418.89911.02064.185.03721.37144.05438.55719.02754.30472.05156.61016.06947.91763.01034.15962.02062.31917.02888.47949.02063.46914.03577.93968.03577,1.4129,0,.04818-.00345.09636-.00407.14448h.00132A30.51,30.51,0,0,1,74.8757,51.06158l17.205-16.48209H84.30957A38.01833,38.01833,0,0,0,27.11973,6.655C56.84589,1.23915,70.27437,19.6528,71.547,21.57Z" transform="translate(-1.08073 -1.29283)"/>
      <path class="cls-1" d="M92.08073,34.57949H84.30957A38.01833,38.01833,0,0,0,27.11973,6.655l.00345-.0007-.0007.0007-.00205.00064A38.05139,38.05139,0,0,0,8.96129,33.73751L21.578,21.65184a30.69508,30.69508,0,0,1,44.34333-6.12708A31.661,31.661,0,0,1,71.547,21.57c.07361.11.1101.1699.1101.1699l-.0069.00141a30.45847,30.45847,0,0,1,5.193,12.83819c.02473.161.04332.324.066.48568.042.29853.08121.59777.11418.89911.02064.185.03721.37144.05438.55719.02754.30472.05156.61016.06947.91763.01034.15962.02062.31917.02888.47949.02063.46914.03577.93968.03577,1.4129,0,.04818-.00345.09636-.00407.14448h.00132A30.51,30.51,0,0,1,74.8757,51.06158Z" transform="translate(-1.08073 -1.29283)"/>
      <path class="cls-1" d="M71.58344,57.01185a30.69484,30.69484,0,0,1-44.3605,6.112,31.63787,31.63787,0,0,1-5.60914-6.03079,1.72793,1.72793,0,0,1-.1032-.172A30.45205,30.45205,0,0,1,16.31834,44.0835c-.02473-.161-.04331-.324-.066-.48562-.04127-.2986-.08121-.59783-.11418-.89911-.02064-.185-.03719-.37143-.05438-.55718-.02747-.30473-.05156-.61016-.07016-.91764-.00965-.15961-.01993-.31923-.02818-.47949-.02063-.46913-.03578-.93968-.03578-1.413,0-.04811.00347-.09629.00417-.1444h-.00211a30.52735,30.52735,0,0,1,2.334-11.58632L1.08073,44.0835H8.85119A38.02,38.02,0,0,0,66.04172,72.00806l-.002.00071v-.00071l.002-.00134A38.05338,38.05338,0,0,0,84.20016,44.92618Z" transform="translate(-1.08073 -1.29283)"/>
      <g>
        <path class="cls-1" d="M38.22106,31.66972c-.84135,7.5118-1.96875,18.95019-6.68018,28.91651-.45886.9699-.75259,3.14645.703,4.01456.67073.399.88945.51591.88945.51591a45.78471,45.78471,0,0,0,9.76128-17.30618c4.46242,6.37412,6.28394,14.40465,7.71551,18.31461.74153,2.02109,3.19251,1.70326,3.19251,1.70326l.95-.216s.41279-7.59444-5.98473-24.88681c-.899-2.43105-.95342-7.52286.291-9.09813,2.88778,2.58236,6.41468,4.73756,12.79218,4.73756h2.12217a2.30239,2.30239,0,0,0-2.18-2.37258c-6.92645-1.27533-9.16484-5.77284-11.331-7.71137C45.95785,24.25209,38.9702,24.97784,38.22106,31.66972Z" transform="translate(-1.08073 -1.29283)"/>
        <path class="cls-1" d="M69.41654,29.69336c-.29649.99815-1.29667,4.42115-2.171,7.47954a2.719,2.719,0,0,1-2.67935,2.15451H56.47234s0,2.94,2.75233,2.94h5.52862c3.04051,0,4.4844-1.6083,5.28581-4.09641,0,0,.59917-1.90754,1.38064-4.86C72.10484,30.72109,70.51445,30.01323,69.41654,29.69336Z" transform="translate(-1.08073 -1.29283)"/>
        <path class="cls-1" d="M51.40941,19.399a5.0361,5.0361,0,1,1-5.0361-5.0375A5.03689,5.03689,0,0,1,51.40941,19.399Z" transform="translate(-1.08073 -1.29283)"/>
      </g>
    </g>
  </g>
</svg>
