<svg id="Layer_1" data-name="Layer 1" xmlns="http://www.w3.org/2000/svg" width="214.54541" height="303.84955" viewBox="0 0 214.54541 303.84955">
  <defs>
    <style>
      .cls-1 {
        fill: #f5f5f5;
      }

      .cls-10, .cls-11, .cls-12, .cls-13, .cls-14, .cls-15, .cls-16, .cls-17, .cls-18, .cls-19, .cls-2, .cls-20, .cls-21, .cls-22, .cls-23, .cls-3, .cls-4, .cls-5, .cls-6, .cls-7, .cls-8, .cls-9 {
        fill: #cecece;
      }

      .cls-3 {
        opacity: 0.95238;
      }

      .cls-4 {
        opacity: 0.90476;
      }

      .cls-5 {
        opacity: 0.85714;
      }

      .cls-6 {
        opacity: 0.80952;
      }

      .cls-7 {
        opacity: 0.7619;
      }

      .cls-8 {
        opacity: 0.71429;
      }

      .cls-9 {
        opacity: 0.66667;
      }

      .cls-10 {
        opacity: 0.61905;
      }

      .cls-11 {
        opacity: 0.57143;
      }

      .cls-12 {
        opacity: 0.52381;
      }

      .cls-13 {
        opacity: 0.47619;
      }

      .cls-14 {
        opacity: 0.42857;
      }

      .cls-15 {
        opacity: 0.38095;
      }

      .cls-16 {
        opacity: 0.33333;
      }

      .cls-17 {
        opacity: 0.28571;
      }

      .cls-18 {
        opacity: 0.2381;
      }

      .cls-19 {
        opacity: 0.19048;
      }

      .cls-20 {
        opacity: 0.14286;
      }

      .cls-21 {
        opacity: 0.09524;
      }

      .cls-22 {
        opacity: 0.04762;
      }

      .cls-23 {
        opacity: 0;
      }

      .cls-24 {
        fill: #0050ac;
      }
    </style>
  </defs>
  <g>
    <path class="cls-1" d="M2.54024,200.83353c0,58.37787,47.76368,106.1416,106.14161,106.1416h2.2622c58.37793,0,106.1416-47.76373,106.1416-106.1416V3.12559H2.54024Z" transform="translate(-2.54024 -3.12559)"/>
    <g>
      <path class="cls-2" d="M183.08324,3.12559,182.95,191.97751c0,40.95088-33.64007,74.14808-75.13722,74.14806s-75.13716-33.19725-75.13714-74.14814l.0001-188.85184" transform="translate(-2.54024 -3.12559)"/>
      <path class="cls-3" d="M181.43187,3.12559,181.305,191.97751c0,40.05264-32.90527,72.5247-73.49218,72.52468s-73.49212-32.47211-73.4921-72.52475L34.31146,3.12834" transform="translate(-2.54024 -3.12559)"/>
      <path class="cls-4" d="M179.78049,3.12559,179.66,191.97752c0,39.15439-32.17046,70.90132-71.84713,70.9013s-71.84709-31.747-71.84707-70.90137L35.94716,3.13109" transform="translate(-2.54024 -3.12559)"/>
      <path class="cls-5" d="M178.12911,3.12559l-.1142,188.85194c0,38.25613-31.43565,69.27793-70.20209,69.27791s-70.202-31.02185-70.202-69.278L37.58286,3.13384" transform="translate(-2.54024 -3.12559)"/>
      <path class="cls-6" d="M176.47773,3.12559l-.10786,188.852c0,37.35788-30.70084,67.65454-68.557,67.65452s-68.557-30.29671-68.557-67.65459L39.21856,3.13659" transform="translate(-2.54024 -3.12559)"/>
      <path class="cls-7" d="M174.82635,3.12559l-.10152,188.852c0,36.45963-29.966,66.03116-66.912,66.03115s-66.912-29.57158-66.91195-66.03121L40.85426,3.13934" transform="translate(-2.54024 -3.12559)"/>
      <path class="cls-8" d="M173.175,3.12559l-.09518,188.852c0,35.56138-29.23123,64.40778-65.267,64.40776s-65.26693-28.84644-65.26691-64.40782L42.49,3.14209" transform="translate(-2.54024 -3.12559)"/>
      <path class="cls-9" d="M171.52359,3.12559l-.08884,188.852c0,34.66313-28.49642,62.78439-63.62193,62.78437S44.19093,226.64063,44.191,191.9775L44.12566,3.14485" transform="translate(-2.54024 -3.12559)"/>
      <path class="cls-10" d="M169.87222,3.12559l-.08251,188.852c0,33.76487-27.76161,61.161-61.97689,61.161S45.836,225.74238,45.836,191.97751L45.76136,3.1476" transform="translate(-2.54024 -3.12559)"/>
      <path class="cls-11" d="M168.22084,3.12559l-.07616,188.852c0,32.86663-27.02682,59.53763-60.33186,59.53761S47.481,224.84414,47.481,191.97751l-.084-188.82716" transform="translate(-2.54024 -3.12559)"/>
      <path class="cls-12" d="M166.56946,3.12559l-.06982,188.852c0,31.96838-26.292,57.91424-58.68682,57.91422s-58.68677-25.9459-58.68675-57.91428L49.03276,3.1531" transform="translate(-2.54024 -3.12559)"/>
      <path class="cls-13" d="M164.91808,3.12559l-.06348,188.852c0,31.07012-25.5572,56.29085-57.04178,56.29084s-57.04173-25.22077-57.04172-56.2909L50.66846,3.15585" transform="translate(-2.54024 -3.12559)"/>
      <path class="cls-14" d="M163.2667,3.12559l-.05714,188.852c0,30.17188-24.82239,54.66748-55.39674,54.66746s-55.39669-24.49564-55.39668-54.66751L52.30416,3.1586" transform="translate(-2.54024 -3.12559)"/>
      <path class="cls-15" d="M161.61532,3.12559l-.0508,188.852c0,29.27362-24.08759,53.04409-53.7517,53.04407s-53.75165-23.7705-53.75164-53.04412L53.93986,3.16135" transform="translate(-2.54024 -3.12559)"/>
      <path class="cls-16" d="M159.96394,3.12559l-.04446,188.852c0,28.37537-23.35278,51.4207-52.10666,51.42069s-52.10661-23.04537-52.1066-51.42074L55.57556,3.16411" transform="translate(-2.54024 -3.12559)"/>
      <path class="cls-17" d="M158.31257,3.12559l-.03813,188.852c0,27.47712-22.618,49.79731-50.46161,49.7973s-50.46158-22.32023-50.46157-49.79735l-.14-188.81071" transform="translate(-2.54024 -3.12559)"/>
      <path class="cls-18" d="M156.66119,3.12559l-.03179,188.852c0,26.57887-21.88316,48.17394-48.81657,48.17392s-48.81654-21.5951-48.81653-48.174L58.847,3.16961" transform="translate(-2.54024 -3.12559)"/>
      <path class="cls-19" d="M155.00981,3.12559l-.02545,188.852c0,25.68062-21.14836,46.55055-47.17153,46.55054s-47.1715-20.87-47.17149-46.55058L60.48266,3.17236" transform="translate(-2.54024 -3.12559)"/>
      <path class="cls-20" d="M153.35843,3.12559l-.01911,188.85205c0,24.78236-20.41355,44.92716-45.52649,44.92715S62.28637,216.76,62.28638,191.97759l-.168-188.80248" transform="translate(-2.54024 -3.12559)"/>
      <path class="cls-21" d="M151.70705,3.12559l-.01277,188.85206c0,23.88411-19.67874,43.30378-43.88145,43.30376S63.93141,215.86172,63.93142,191.9776L63.75406,3.17786" transform="translate(-2.54024 -3.12559)"/>
      <path class="cls-22" d="M150.05567,3.12559l-.00643,188.85206c0,22.98587-18.94393,41.6804-42.23641,41.68039s-42.23638-18.69457-42.23637-41.68043l-.1867-188.797" transform="translate(-2.54024 -3.12559)"/>
      <path class="cls-23" d="M148.40429,3.12559l-.00009,188.85207c0,22.08761-18.20913,40.057-40.59137,40.057s-40.59134-17.96943-40.59133-40.057l-.196-188.79425" transform="translate(-2.54024 -3.12559)"/>
    </g>
    <path class="cls-24" d="M107.92,147.15826a5.42344,5.42344,0,0,1-3.8453-1.59234l-33.398-33.39836a5.43948,5.43948,0,0,1,7.69233-7.69284l29.551,29.55272,29.55117-29.55169a5.43923,5.43923,0,0,1,7.69163,7.69284L111.7653,145.567A5.42345,5.42345,0,0,1,107.92,147.15826Z" transform="translate(-2.54024 -3.12559)"/>
  </g>
</svg>
