<svg id="Layer_1" data-name="Layer 1" xmlns="http://www.w3.org/2000/svg" viewBox="0 0 75.29225 60.49795"><defs><style>.cls-1{fill:#00476a;}</style></defs><path class="cls-1" d="M44.67816,59.37738a8.58612,8.58612,0,1,1,0-12.1432A8.59621,8.59621,0,0,1,44.67816,59.37738Z" transform="translate(-0.96043 -1.39037)"/><path class="cls-1" d="M55.20658,41.22854a3.19837,3.19837,0,0,1-4.52278,0,17.09929,17.09929,0,0,0-24.15448,0,3.19809,3.19809,0,1,1-4.52279-4.52278,23.50247,23.50247,0,0,1,33.20005,0A3.19784,3.19784,0,0,1,55.20658,41.22854Z" transform="translate(-0.96043 -1.39037)"/><path class="cls-1" d="M65.3216,31.11353a3.19787,3.19787,0,0,1-4.52279,0,31.42015,31.42015,0,0,0-44.38451,0,3.19809,3.19809,0,0,1-4.52278-4.52279,37.82335,37.82335,0,0,1,53.43008,0A3.19787,3.19787,0,0,1,65.3216,31.11353Z" transform="translate(-0.96043 -1.39037)"/><path class="cls-1" d="M75.31588,21.11924a3.19839,3.19839,0,0,1-4.52278,0,45.57006,45.57006,0,0,0-64.37309,0,3.19809,3.19809,0,0,1-4.52278-4.52278,51.9134,51.9134,0,0,1,73.41865,0A3.19784,3.19784,0,0,1,75.31588,21.11924Z" transform="translate(-0.96043 -1.39037)"/></svg>