<svg id="Layer_1" data-name="Layer 1" xmlns="http://www.w3.org/2000/svg" xmlns:xlink="http://www.w3.org/1999/xlink" width="1.79167in" height="1.79167in" viewBox="0 0 129 129.00001">
  <defs>
    <linearGradient id="Áåçûìÿííûé_ãðàäèåíò_2" data-name="Áåçûìÿííûé ãðàäèåíò 2" x1="42.4337" y1="3.87333" x2="86.56631" y2="125.12668" gradientUnits="userSpaceOnUse">
      <stop offset="0.1" stop-color="#b1b4be"/>
      <stop offset="0.9" stop-color="#fff"/>
    </linearGradient>
    <linearGradient id="linear-gradient" x1="42.91694" y1="5.20104" x2="86.08306" y2="123.79898" gradientUnits="userSpaceOnUse">
      <stop offset="0.1" stop-color="#b3b6bf"/>
      <stop offset="0.9" stop-color="#fdfdfd"/>
    </linearGradient>
    <linearGradient id="linear-gradient-2" x1="43.40018" y1="6.52875" x2="85.5998" y2="122.47128" gradientUnits="userSpaceOnUse">
      <stop offset="0.1" stop-color="#b4b7c0"/>
      <stop offset="0.9" stop-color="#fbfbfb"/>
    </linearGradient>
    <linearGradient id="linear-gradient-3" x1="43.88342" y1="7.85647" x2="85.11655" y2="121.14358" gradientUnits="userSpaceOnUse">
      <stop offset="0.1" stop-color="#b6b9c1"/>
      <stop offset="0.9" stop-color="#f9f9f9"/>
    </linearGradient>
    <linearGradient id="linear-gradient-4" x1="44.36666" y1="9.18418" x2="84.6333" y2="119.81588" gradientUnits="userSpaceOnUse">
      <stop offset="0.1" stop-color="#b8bac2"/>
      <stop offset="0.9" stop-color="#f7f7f7"/>
    </linearGradient>
    <linearGradient id="linear-gradient-5" x1="44.8499" y1="10.5119" x2="84.15005" y2="118.48818" gradientUnits="userSpaceOnUse">
      <stop offset="0.1" stop-color="#babcc3"/>
      <stop offset="0.9" stop-color="#f5f5f5"/>
    </linearGradient>
    <linearGradient id="linear-gradient-6" x1="45.33314" y1="11.83961" x2="83.6668" y2="117.16047" gradientUnits="userSpaceOnUse">
      <stop offset="0.1" stop-color="#bbbdc5"/>
      <stop offset="0.9" stop-color="#f3f3f3"/>
    </linearGradient>
    <linearGradient id="linear-gradient-7" x1="45.81638" y1="13.16732" x2="83.18354" y2="115.83277" gradientUnits="userSpaceOnUse">
      <stop offset="0.1" stop-color="#bdbfc6"/>
      <stop offset="0.9" stop-color="#f1f1f1"/>
    </linearGradient>
    <linearGradient id="linear-gradient-8" x1="46.29961" y1="14.49504" x2="82.70029" y2="114.50507" gradientUnits="userSpaceOnUse">
      <stop offset="0.1" stop-color="#bfc1c7"/>
      <stop offset="0.9" stop-color="#efefef"/>
    </linearGradient>
    <linearGradient id="linear-gradient-9" x1="46.78285" y1="15.82275" x2="82.21704" y2="113.17737" gradientUnits="userSpaceOnUse">
      <stop offset="0.1" stop-color="#c0c2c8"/>
      <stop offset="0.9" stop-color="#ededed"/>
    </linearGradient>
    <linearGradient id="linear-gradient-10" x1="47.26609" y1="17.15046" x2="81.73379" y2="111.84967" gradientUnits="userSpaceOnUse">
      <stop offset="0.1" stop-color="#c2c4c9"/>
      <stop offset="0.9" stop-color="#ebebeb"/>
    </linearGradient>
    <linearGradient id="linear-gradient-11" x1="49.24933" y1="19.47817" x2="82.75053" y2="111.52197" gradientUnits="userSpaceOnUse">
      <stop offset="0.1" stop-color="#c4c5ca"/>
      <stop offset="0.9" stop-color="#e9e9e9"/>
    </linearGradient>
    <linearGradient id="linear-gradient-12" x1="49.73257" y1="20.80589" x2="82.26728" y2="110.19427" gradientUnits="userSpaceOnUse">
      <stop offset="0.1" stop-color="#c6c7cb"/>
      <stop offset="0.9" stop-color="#e7e7e7"/>
    </linearGradient>
    <linearGradient id="linear-gradient-13" x1="50.21581" y1="22.1336" x2="81.78403" y2="108.86657" gradientUnits="userSpaceOnUse">
      <stop offset="0.1" stop-color="#c7c8cc"/>
      <stop offset="0.9" stop-color="#e5e5e5"/>
    </linearGradient>
    <linearGradient id="linear-gradient-14" x1="50.69905" y1="23.46131" x2="81.30078" y2="107.53887" gradientUnits="userSpaceOnUse">
      <stop offset="0.1" stop-color="#c9cacd"/>
      <stop offset="0.9" stop-color="#e3e3e3"/>
    </linearGradient>
    <linearGradient id="linear-gradient-15" x1="51.18229" y1="24.78903" x2="80.81753" y2="106.21117" gradientUnits="userSpaceOnUse">
      <stop offset="0.1" stop-color="#cbccce"/>
      <stop offset="0.9" stop-color="#e1e1e1"/>
    </linearGradient>
    <linearGradient id="linear-gradient-16" x1="51.66553" y1="26.11674" x2="80.33428" y2="104.88347" gradientUnits="userSpaceOnUse">
      <stop offset="0.1" stop-color="#cccdd0"/>
      <stop offset="0.9" stop-color="#dfdfdf"/>
    </linearGradient>
    <linearGradient id="linear-gradient-17" x1="52.14877" y1="27.44445" x2="79.85102" y2="103.55577" gradientUnits="userSpaceOnUse">
      <stop offset="0.1" stop-color="#cecfd1"/>
      <stop offset="0.9" stop-color="#ddd"/>
    </linearGradient>
    <linearGradient id="linear-gradient-18" x1="52.63201" y1="28.77216" x2="79.36777" y2="102.22807" gradientUnits="userSpaceOnUse">
      <stop offset="0.1" stop-color="#d0d0d2"/>
      <stop offset="0.9" stop-color="#dbdbdb"/>
    </linearGradient>
    <linearGradient id="linear-gradient-19" x1="53.11525" y1="30.09988" x2="78.88452" y2="100.90037" gradientUnits="userSpaceOnUse">
      <stop offset="0.1" stop-color="#d2d2d3"/>
      <stop offset="0.9" stop-color="#d9d9d9"/>
    </linearGradient>
    <linearGradient id="linear-gradient-20" x1="53.59849" y1="31.42759" x2="78.40127" y2="99.57267" gradientUnits="userSpaceOnUse">
      <stop offset="0.1" stop-color="#d3d3d4"/>
      <stop offset="0.9" stop-color="#d7d7d7"/>
    </linearGradient>
  </defs>
  <g>
    <circle cx="64.5" cy="64.5" r="64.5" fill="url(#Áåçûìÿííûé_ãðàäèåíò_2)"/>
    <circle cx="64.49999" cy="64.5" r="63.08782" opacity="0.95238" fill="url(#linear-gradient)"/>
    <circle cx="64.49997" cy="64.5" r="61.67565" opacity="0.90476" fill="url(#linear-gradient-2)"/>
    <circle cx="64.49996" cy="64.49999" r="60.26347" opacity="0.85714" fill="url(#linear-gradient-3)"/>
    <circle cx="64.49994" cy="64.49999" r="58.85129" opacity="0.80952" fill="url(#linear-gradient-4)"/>
    <circle cx="64.49993" cy="64.49999" r="57.43911" opacity="0.7619" fill="url(#linear-gradient-5)"/>
    <circle cx="64.49992" cy="64.49998" r="56.02694" opacity="0.71429" fill="url(#linear-gradient-6)"/>
    <circle cx="64.4999" cy="64.49998" r="54.61476" opacity="0.66667" fill="url(#linear-gradient-7)"/>
    <circle cx="64.49989" cy="64.49997" r="53.20258" opacity="0.61905" fill="url(#linear-gradient-8)"/>
    <circle cx="64.49987" cy="64.49997" r="51.7904" opacity="0.57143" fill="url(#linear-gradient-9)"/>
    <circle cx="64.49986" cy="64.49997" r="50.37823" opacity="0.52381" fill="url(#linear-gradient-10)"/>
    <path d="M65.99984,114.46611a48.966,48.966,0,1,1,48.96634-48.96634A48.98687,48.98687,0,0,1,65.99984,114.46611Z" transform="translate(-1.5 -1)" opacity="0.47619" fill="url(#linear-gradient-11)"/>
    <path d="M65.99983,113.05394A47.55377,47.55377,0,1,1,113.554,65.49975,47.57659,47.57659,0,0,1,65.99983,113.05394Z" transform="translate(-1.5 -1)" opacity="0.42857" fill="url(#linear-gradient-12)"/>
    <path d="M65.99982,111.64176a46.14158,46.14158,0,1,1,46.142-46.142A46.16631,46.16631,0,0,1,65.99982,111.64176Z" transform="translate(-1.5 -1)" opacity="0.38095" fill="url(#linear-gradient-13)"/>
    <path d="M65.9998,110.22959A44.7294,44.7294,0,1,1,110.72969,65.4997,44.756,44.756,0,0,1,65.9998,110.22959Z" transform="translate(-1.5 -1)" opacity="0.33333" fill="url(#linear-gradient-14)"/>
    <path d="M65.99979,108.81742a43.31721,43.31721,0,1,1,43.31773-43.31774A43.34576,43.34576,0,0,1,65.99979,108.81742Z" transform="translate(-1.5 -1)" opacity="0.28571" fill="url(#linear-gradient-15)"/>
    <path d="M65.99977,107.40525a41.905,41.905,0,1,1,41.90559-41.90559A41.93547,41.93547,0,0,1,65.99977,107.40525Z" transform="translate(-1.5 -1)" opacity="0.2381" fill="url(#linear-gradient-16)"/>
    <path d="M65.99976,105.99307a40.49283,40.49283,0,1,1,40.49343-40.49343A40.52519,40.52519,0,0,1,65.99976,105.99307Z" transform="translate(-1.5 -1)" opacity="0.19048" fill="url(#linear-gradient-17)"/>
    <path d="M65.99975,104.5809A39.08065,39.08065,0,1,1,105.081,65.49962,39.11492,39.11492,0,0,1,65.99975,104.5809Z" transform="translate(-1.5 -1)" opacity="0.14286" fill="url(#linear-gradient-18)"/>
    <path d="M65.99973,103.16873A37.66846,37.66846,0,1,1,103.66886,65.4996,37.70464,37.70464,0,0,1,65.99973,103.16873Z" transform="translate(-1.5 -1)" opacity="0.09524" fill="url(#linear-gradient-19)"/>
    <path d="M65.99972,101.75656a36.25628,36.25628,0,1,1,36.257-36.257A36.29437,36.29437,0,0,1,65.99972,101.75656Z" transform="translate(-1.5 -1)" opacity="0.04762" fill="url(#linear-gradient-20)"/>
    <path d="M65.9997,100.34438a34.84409,34.84409,0,1,1,34.84483-34.84482A34.88408,34.88408,0,0,1,65.9997,100.34438Z" transform="translate(-1.5 -1)" fill="#d5d5d5" opacity="0"/>
  </g>
</svg>
