<svg id="Layer_1" data-name="Layer 1" xmlns="http://www.w3.org/2000/svg" xmlns:xlink="http://www.w3.org/1999/xlink" width="157.99966" height="157.99966" viewBox="0 0 157.99966 157.99966">
  <defs>
    <linearGradient id="Áåçûìÿííûé_ãðàäèåíò_1459" data-name="Áåçûìÿííûé ãðàäèåíò 1459" x1="57.43357" y1="18.37329" x2="101.56609" y2="139.62638" gradientUnits="userSpaceOnUse">
      <stop offset="0.1" stop-color="#c8ccd7"/>
      <stop offset="0.9" stop-color="#fff"/>
    </linearGradient>
    <linearGradient id="linear-gradient" x1="57.91681" y1="19.701" x2="101.08284" y2="138.29868" gradientUnits="userSpaceOnUse">
      <stop offset="0.1" stop-color="#caced8"/>
      <stop offset="0.9" stop-color="#fefefe"/>
    </linearGradient>
    <linearGradient id="linear-gradient-2" x1="58.40005" y1="21.02871" x2="100.59959" y2="136.97098" gradientUnits="userSpaceOnUse">
      <stop offset="0.1" stop-color="#ccd0d9"/>
      <stop offset="0.9" stop-color="#fefefe"/>
    </linearGradient>
    <linearGradient id="linear-gradient-3" x1="58.88329" y1="22.35642" x2="100.11634" y2="135.64329" gradientUnits="userSpaceOnUse">
      <stop offset="0.1" stop-color="#ced2db"/>
      <stop offset="0.9" stop-color="#fdfdfd"/>
    </linearGradient>
    <linearGradient id="linear-gradient-4" x1="59.36653" y1="23.68413" x2="99.63309" y2="134.31559" gradientUnits="userSpaceOnUse">
      <stop offset="0.1" stop-color="#d0d4dc"/>
      <stop offset="0.9" stop-color="#fdfdfd"/>
    </linearGradient>
    <linearGradient id="linear-gradient-5" x1="59.84977" y1="25.01184" x2="99.14984" y2="132.98789" gradientUnits="userSpaceOnUse">
      <stop offset="0.1" stop-color="#d3d6de"/>
      <stop offset="0.9" stop-color="#fcfcfc"/>
    </linearGradient>
    <linearGradient id="linear-gradient-6" x1="60.33301" y1="26.33955" x2="98.66659" y2="131.66019" gradientUnits="userSpaceOnUse">
      <stop offset="0.1" stop-color="#d5d8df"/>
      <stop offset="0.9" stop-color="#fcfcfc"/>
    </linearGradient>
    <linearGradient id="linear-gradient-7" x1="60.81625" y1="27.66726" x2="98.18333" y2="130.33249" gradientUnits="userSpaceOnUse">
      <stop offset="0.1" stop-color="#d7dae0"/>
      <stop offset="0.9" stop-color="#fbfbfb"/>
    </linearGradient>
    <linearGradient id="linear-gradient-8" x1="61.29948" y1="28.99497" x2="97.70008" y2="129.0048" gradientUnits="userSpaceOnUse">
      <stop offset="0.1" stop-color="#d9dbe2"/>
      <stop offset="0.9" stop-color="#fbfbfb"/>
    </linearGradient>
    <linearGradient id="linear-gradient-9" x1="61.78272" y1="30.32268" x2="97.21683" y2="127.6771" gradientUnits="userSpaceOnUse">
      <stop offset="0.1" stop-color="#dbdde3"/>
      <stop offset="0.9" stop-color="#fafafa"/>
    </linearGradient>
    <linearGradient id="linear-gradient-10" x1="62.26596" y1="31.65039" x2="96.73358" y2="126.3494" gradientUnits="userSpaceOnUse">
      <stop offset="0.1" stop-color="#dddfe5"/>
      <stop offset="0.9" stop-color="#fafafa"/>
    </linearGradient>
    <linearGradient id="linear-gradient-11" x1="62.80447" y1="32.97821" x2="96.3056" y2="125.02181" gradientUnits="userSpaceOnUse">
      <stop offset="0.1" stop-color="#dfe1e6"/>
      <stop offset="0.9" stop-color="#f9f9f9"/>
    </linearGradient>
    <linearGradient id="linear-gradient-12" x1="63.28771" y1="34.30592" x2="95.82235" y2="123.69412" gradientUnits="userSpaceOnUse">
      <stop offset="0.1" stop-color="#e1e3e7"/>
      <stop offset="0.9" stop-color="#f9f9f9"/>
    </linearGradient>
    <linearGradient id="linear-gradient-13" x1="63.77095" y1="35.63364" x2="95.3391" y2="122.36642" gradientUnits="userSpaceOnUse">
      <stop offset="0.1" stop-color="#e3e5e9"/>
      <stop offset="0.9" stop-color="#f8f8f8"/>
    </linearGradient>
    <linearGradient id="linear-gradient-14" x1="64.25418" y1="36.96135" x2="94.85585" y2="121.03872" gradientUnits="userSpaceOnUse">
      <stop offset="0.1" stop-color="#e5e7ea"/>
      <stop offset="0.9" stop-color="#f8f8f8"/>
    </linearGradient>
    <linearGradient id="linear-gradient-15" x1="64.73742" y1="38.28906" x2="94.3726" y2="119.71102" gradientUnits="userSpaceOnUse">
      <stop offset="0.1" stop-color="#e7e9ec"/>
      <stop offset="0.9" stop-color="#f7f7f7"/>
    </linearGradient>
    <linearGradient id="linear-gradient-16" x1="65.22066" y1="39.61677" x2="93.88935" y2="118.38333" gradientUnits="userSpaceOnUse">
      <stop offset="0.1" stop-color="#eaebed"/>
      <stop offset="0.9" stop-color="#f7f7f7"/>
    </linearGradient>
    <linearGradient id="linear-gradient-17" x1="65.7039" y1="40.94448" x2="93.40609" y2="117.05563" gradientUnits="userSpaceOnUse">
      <stop offset="0.1" stop-color="#ececee"/>
      <stop offset="0.9" stop-color="#f6f6f6"/>
    </linearGradient>
    <linearGradient id="linear-gradient-18" x1="66.18714" y1="42.27219" x2="92.92284" y2="115.72793" gradientUnits="userSpaceOnUse">
      <stop offset="0.1" stop-color="#eeeef0"/>
      <stop offset="0.9" stop-color="#f6f6f6"/>
    </linearGradient>
    <linearGradient id="linear-gradient-19" x1="66.67038" y1="43.5999" x2="92.43959" y2="114.40023" gradientUnits="userSpaceOnUse">
      <stop offset="0.1" stop-color="#f0f0f1"/>
      <stop offset="0.9" stop-color="#f5f5f5"/>
    </linearGradient>
    <linearGradient id="linear-gradient-20" x1="67.15362" y1="44.92761" x2="91.95634" y2="113.07254" gradientUnits="userSpaceOnUse">
      <stop offset="0.1" stop-color="#f2f2f3"/>
      <stop offset="0.9" stop-color="#f5f5f5"/>
    </linearGradient>
  </defs>
  <g>
    <circle cx="78.99983" cy="78.99983" r="78.99983" fill="#f5f5f5"/>
    <g>
      <circle cx="79.49983" cy="78.99983" r="64.49986" fill="url(#Áåçûìÿííûé_ãðàäèåíò_1459)"/>
      <circle cx="79.49982" cy="78.99983" r="63.08769" opacity="0.95238" fill="url(#linear-gradient)"/>
      <circle cx="79.4998" cy="78.99983" r="61.67552" opacity="0.90476" fill="url(#linear-gradient-2)"/>
      <circle cx="79.49979" cy="78.99982" r="60.26334" opacity="0.85714" fill="url(#linear-gradient-3)"/>
      <circle cx="79.49978" cy="78.99982" r="58.85117" opacity="0.80952" fill="url(#linear-gradient-4)"/>
      <circle cx="79.49976" cy="78.99981" r="57.43899" opacity="0.7619" fill="url(#linear-gradient-5)"/>
      <circle cx="79.49975" cy="78.99981" r="56.02682" opacity="0.71429" fill="url(#linear-gradient-6)"/>
      <circle cx="79.49973" cy="78.99981" r="54.61464" opacity="0.66667" fill="url(#linear-gradient-7)"/>
      <circle cx="79.49972" cy="78.9998" r="53.20247" opacity="0.61905" fill="url(#linear-gradient-8)"/>
      <circle cx="79.49971" cy="78.9998" r="51.79029" opacity="0.57143" fill="url(#linear-gradient-9)"/>
      <circle cx="79.49969" cy="78.9998" r="50.37812" opacity="0.52381" fill="url(#linear-gradient-10)"/>
      <path d="M79.55494,127.966a48.96585,48.96585,0,1,1,48.96624-48.96624A48.98677,48.98677,0,0,1,79.55494,127.966Z" transform="translate(-0.05527 -0.00011)" opacity="0.47619" fill="url(#linear-gradient-11)"/>
      <path d="M79.55493,126.55378A47.55367,47.55367,0,1,1,127.109,78.99969,47.5765,47.5765,0,0,1,79.55493,126.55378Z" transform="translate(-0.05527 -0.00011)" opacity="0.42857" fill="url(#linear-gradient-12)"/>
      <path d="M79.55492,125.14161a46.14148,46.14148,0,1,1,46.14194-46.14194A46.16621,46.16621,0,0,1,79.55492,125.14161Z" transform="translate(-0.05527 -0.00011)" opacity="0.38095" fill="url(#linear-gradient-13)"/>
      <path d="M79.5549,123.72944a44.7293,44.7293,0,1,1,44.72979-44.72979A44.75594,44.75594,0,0,1,79.5549,123.72944Z" transform="translate(-0.05527 -0.00011)" opacity="0.33333" fill="url(#linear-gradient-14)"/>
      <path d="M79.55489,122.31727a43.31712,43.31712,0,1,1,43.31764-43.31764A43.34566,43.34566,0,0,1,79.55489,122.31727Z" transform="translate(-0.05527 -0.00011)" opacity="0.28571" fill="url(#linear-gradient-15)"/>
      <path d="M79.55487,120.9051a41.90493,41.90493,0,1,1,41.9055-41.90549A41.93538,41.93538,0,0,1,79.55487,120.9051Z" transform="translate(-0.05527 -0.00011)" opacity="0.2381" fill="url(#linear-gradient-16)"/>
      <path d="M79.55486,119.49293a40.49275,40.49275,0,1,1,40.49335-40.49335A40.52511,40.52511,0,0,1,79.55486,119.49293Z" transform="translate(-0.05527 -0.00011)" opacity="0.19048" fill="url(#linear-gradient-17)"/>
      <path d="M79.55485,118.08076A39.08057,39.08057,0,1,1,118.636,78.99956,39.11483,39.11483,0,0,1,79.55485,118.08076Z" transform="translate(-0.05527 -0.00011)" opacity="0.14286" fill="url(#linear-gradient-18)"/>
      <path d="M79.55483,116.66859a37.66838,37.66838,0,1,1,37.66905-37.669A37.70456,37.70456,0,0,1,79.55483,116.66859Z" transform="translate(-0.05527 -0.00011)" opacity="0.09524" fill="url(#linear-gradient-19)"/>
      <path d="M79.55482,115.25642a36.2562,36.2562,0,1,1,36.2569-36.2569A36.29428,36.29428,0,0,1,79.55482,115.25642Z" transform="translate(-0.05527 -0.00011)" opacity="0.04762" fill="url(#linear-gradient-20)"/>
      <path d="M79.5548,113.84425A34.844,34.844,0,1,1,114.39956,78.9995,34.884,34.884,0,0,1,79.5548,113.84425Z" transform="translate(-0.05527 -0.00011)" fill="#f4f4f4" opacity="0"/>
    </g>
  </g>
</svg>
