<?xml version="1.0" encoding="utf-8"?>
<!-- Generator: Adobe Illustrator 25.2.0, SVG Export Plug-In . SVG Version: 6.00 Build 0)  -->
<svg version="1.1" id="Layer_1" xmlns="http://www.w3.org/2000/svg" xmlns:xlink="http://www.w3.org/1999/xlink" x="0px" y="0px"
	 viewBox="0 0 300 300" style="enable-background:new 0 0 300 300;" xml:space="preserve">
<style type="text/css">
	.st0{fill:#F5F5F5;}
	.st1{fill:url(#SVGID_1_);}
	.st2{opacity:0.9524;fill:url(#SVGID_2_);}
	.st3{opacity:0.9048;fill:url(#SVGID_3_);}
	.st4{opacity:0.8571;fill:url(#SVGID_4_);}
	.st5{opacity:0.8095;fill:url(#SVGID_5_);}
	.st6{opacity:0.7619;fill:url(#SVGID_6_);}
	.st7{opacity:0.7143;fill:url(#SVGID_7_);}
	.st8{opacity:0.6667;fill:url(#SVGID_8_);}
	.st9{opacity:0.619;fill:url(#SVGID_9_);}
	.st10{opacity:0.5714;fill:url(#SVGID_10_);}
	.st11{opacity:0.5238;fill:url(#SVGID_11_);}
	.st12{opacity:0.4762;fill:url(#SVGID_12_);}
	.st13{opacity:0.4286;fill:url(#SVGID_13_);}
	.st14{opacity:0.381;fill:url(#SVGID_14_);}
	.st15{opacity:0.3333;fill:url(#SVGID_15_);}
	.st16{opacity:0.2857;fill:url(#SVGID_16_);}
	.st17{opacity:0.2381;fill:url(#SVGID_17_);}
	.st18{opacity:0.1905;fill:url(#SVGID_18_);}
	.st19{opacity:0.1429;fill:url(#SVGID_19_);}
	.st20{opacity:0.0952;fill:url(#SVGID_20_);}
	.st21{opacity:0.0476;fill:url(#SVGID_21_);}
	.st22{opacity:0;fill:#ACACAC;}
</style>
<g>
	<circle class="st0" cx="149.7" cy="150.44" r="79"/>
	<g>
		
			<linearGradient id="SVGID_1_" gradientUnits="userSpaceOnUse" x1="534.0411" y1="2424.9937" x2="576.8455" y2="2542.5974" gradientTransform="matrix(-4.901923e-07 1 -1 -4.901923e-07 2633.5007 -404.9995)">
			<stop  offset="0.1" style="stop-color:#8D9098"/>
			<stop  offset="0.9" style="stop-color:#FFFFFF"/>
		</linearGradient>
		<ellipse class="st1" cx="149.7" cy="150.44" rx="62.5" ry="63"/>
		
			<linearGradient id="SVGID_2_" gradientUnits="userSpaceOnUse" x1="416.0964" y1="2437.8831" x2="460.0131" y2="2558.5432" gradientTransform="matrix(0.0476 0.9524 -0.9524 0.0476 2508.0959 -385.7138)">
			<stop  offset="0.1" style="stop-color:#8E9199"/>
			<stop  offset="0.9" style="stop-color:#FBFBFB"/>
		</linearGradient>
		<ellipse class="st2" cx="149.7" cy="150.44" rx="61.13" ry="61.62"/>
		
			<linearGradient id="SVGID_3_" gradientUnits="userSpaceOnUse" x1="285.5654" y1="2438.6284" x2="330.5794" y2="2562.3035" gradientTransform="matrix(0.0952 0.9048 -0.9048 0.0952 2382.6912 -366.4281)">
			<stop  offset="0.1" style="stop-color:#90939A"/>
			<stop  offset="0.9" style="stop-color:#F7F7F7"/>
		</linearGradient>
		<ellipse class="st3" cx="149.7" cy="150.44" rx="59.76" ry="60.24"/>
		
			<linearGradient id="SVGID_4_" gradientUnits="userSpaceOnUse" x1="143.064" y1="2423.2483" x2="189.1276" y2="2549.8069" gradientTransform="matrix(0.1429 0.8571 -0.8571 0.1429 2257.2864 -347.1424)">
			<stop  offset="0.1" style="stop-color:#91949B"/>
			<stop  offset="0.9" style="stop-color:#F3F3F3"/>
		</linearGradient>
		<ellipse class="st4" cx="149.7" cy="150.44" rx="58.39" ry="58.86"/>
		
			<linearGradient id="SVGID_5_" gradientUnits="userSpaceOnUse" x1="-9.5754" y1="2387.2542" x2="37.4466" y2="2516.446" gradientTransform="matrix(0.1905 0.8095 -0.8095 0.1905 2131.8816 -327.8567)">
			<stop  offset="0.1" style="stop-color:#93959C"/>
			<stop  offset="0.9" style="stop-color:#EFEFEF"/>
		</linearGradient>
		<ellipse class="st5" cx="149.7" cy="150.44" rx="57.03" ry="57.48"/>
		
			<linearGradient id="SVGID_6_" gradientUnits="userSpaceOnUse" x1="-168.8721" y1="2326.0012" x2="-121.0366" y2="2457.4285" gradientTransform="matrix(0.2381 0.7619 -0.7619 0.2381 2006.4768 -308.571)">
			<stop  offset="0.1" style="stop-color:#94979D"/>
			<stop  offset="0.9" style="stop-color:#EBEBEB"/>
		</linearGradient>
		<ellipse class="st6" cx="149.7" cy="150.44" rx="55.66" ry="56.1"/>
		
			<linearGradient id="SVGID_7_" gradientUnits="userSpaceOnUse" x1="-329.3458" y1="2235.3188" x2="-280.905" y2="2368.4087" gradientTransform="matrix(0.2857 0.7143 -0.7143 0.2857 1881.0719 -289.2853)">
			<stop  offset="0.1" style="stop-color:#96989E"/>
			<stop  offset="0.9" style="stop-color:#E7E7E7"/>
		</linearGradient>
		<ellipse class="st7" cx="149.7" cy="150.44" rx="54.29" ry="54.72"/>
		
			<linearGradient id="SVGID_8_" gradientUnits="userSpaceOnUse" x1="-483.4302" y1="2112.4255" x2="-434.6618" y2="2246.4158" gradientTransform="matrix(0.3333 0.6667 -0.6667 0.3333 1755.6671 -269.9996)">
			<stop  offset="0.1" style="stop-color:#97999F"/>
			<stop  offset="0.9" style="stop-color:#E3E3E3"/>
		</linearGradient>
		<ellipse class="st8" cx="149.7" cy="150.44" rx="52.92" ry="53.34"/>
		
			<linearGradient id="SVGID_9_" gradientUnits="userSpaceOnUse" x1="-621.8766" y1="1957.0063" x2="-573.126" y2="2090.9475" gradientTransform="matrix(0.381 0.619 -0.619 0.381 1630.2623 -250.7139)">
			<stop  offset="0.1" style="stop-color:#999BA0"/>
			<stop  offset="0.9" style="stop-color:#DFDFDF"/>
		</linearGradient>
		<ellipse class="st9" cx="149.7" cy="150.44" rx="51.55" ry="51.97"/>
		
			<linearGradient id="SVGID_10_" gradientUnits="userSpaceOnUse" x1="-734.7975" y1="1772.1504" x2="-686.4677" y2="1904.9355" gradientTransform="matrix(0.4286 0.5714 -0.5714 0.4286 1504.8575 -231.4283)">
			<stop  offset="0.1" style="stop-color:#9A9CA1"/>
			<stop  offset="0.9" style="stop-color:#DBDBDB"/>
		</linearGradient>
		<ellipse class="st10" cx="149.7" cy="150.44" rx="50.18" ry="50.59"/>
		
			<linearGradient id="SVGID_11_" gradientUnits="userSpaceOnUse" x1="-813.2824" y1="1564.7183" x2="-765.8115" y2="1695.1437" gradientTransform="matrix(0.4762 0.5238 -0.5238 0.4762 1379.4528 -212.1426)">
			<stop  offset="0.1" style="stop-color:#9C9DA2"/>
			<stop  offset="0.9" style="stop-color:#D7D7D7"/>
		</linearGradient>
		<ellipse class="st11" cx="149.7" cy="150.44" rx="48.82" ry="49.21"/>
		
			<linearGradient id="SVGID_12_" gradientUnits="userSpaceOnUse" x1="-851.1865" y1="1344.7833" x2="-805.0161" y2="1471.6356" gradientTransform="matrix(0.5238 0.4762 -0.4762 0.5238 1254.048 -192.8569)">
			<stop  offset="0.1" style="stop-color:#9D9FA2"/>
			<stop  offset="0.9" style="stop-color:#D4D4D4"/>
		</linearGradient>
		<path class="st12" d="M102.26,150.44c0-26.4,21.26-47.83,47.45-47.83c26.19,0,47.45,21.43,47.45,47.83
			c0,26.4-21.26,47.83-47.45,47.83S102.26,176.84,102.26,150.44z"/>
		
			<linearGradient id="SVGID_13_" gradientUnits="userSpaceOnUse" x1="-846.4698" y1="1124.1266" x2="-802.0093" y2="1246.281" gradientTransform="matrix(0.5714 0.4286 -0.4286 0.5714 1128.6432 -173.5712)">
			<stop  offset="0.1" style="stop-color:#9FA0A3"/>
			<stop  offset="0.9" style="stop-color:#D0D0D0"/>
		</linearGradient>
		<path class="st13" d="M103.63,150.44c0-25.64,20.65-46.45,46.08-46.45c25.43,0,46.08,20.81,46.08,46.45
			c0,25.64-20.65,46.45-46.08,46.45C124.27,196.89,103.63,176.08,103.63,150.44z"/>
		
			<linearGradient id="SVGID_14_" gradientUnits="userSpaceOnUse" x1="-801.5482" y1="914.2103" x2="-759.142" y2="1030.7205" gradientTransform="matrix(0.619 0.381 -0.381 0.619 1003.2384 -154.2855)">
			<stop  offset="0.1" style="stop-color:#A0A1A4"/>
			<stop  offset="0.9" style="stop-color:#CCCCCC"/>
		</linearGradient>
		<path class="st14" d="M104.99,150.44c0-24.87,20.04-45.07,44.71-45.07c24.67,0,44.71,20.2,44.71,45.07
			c0,24.87-20.04,45.07-44.71,45.07S104.99,175.31,104.99,150.44z"/>
		
			<linearGradient id="SVGID_15_" gradientUnits="userSpaceOnUse" x1="-722.5366" y1="724.3288" x2="-682.4421" y2="834.4875" gradientTransform="matrix(0.6667 0.3333 -0.3333 0.6667 877.8336 -134.9998)">
			<stop  offset="0.1" style="stop-color:#A2A3A5"/>
			<stop  offset="0.9" style="stop-color:#C8C8C8"/>
		</linearGradient>
		<path class="st15" d="M106.36,150.44c0-24.11,19.43-43.69,43.34-43.69c23.92,0,43.34,19.58,43.34,43.69
			c0,24.11-19.42,43.69-43.34,43.69S106.36,174.55,106.36,150.44z"/>
		
			<linearGradient id="SVGID_16_" gradientUnits="userSpaceOnUse" x1="-617.7466" y1="560.5127" x2="-580.1259" y2="663.8748" gradientTransform="matrix(0.7143 0.2857 -0.2857 0.7143 752.4288 -115.7141)">
			<stop  offset="0.1" style="stop-color:#A3A4A6"/>
			<stop  offset="0.9" style="stop-color:#C4C4C4"/>
		</linearGradient>
		<path class="st16" d="M107.73,150.44c0-23.35,18.81-42.31,41.97-42.31c23.16,0,41.97,18.96,41.97,42.31
			c0,23.35-18.81,42.31-41.97,42.31C126.54,192.75,107.73,173.79,107.73,150.44z"/>
		
			<linearGradient id="SVGID_17_" gradientUnits="userSpaceOnUse" x1="-496.0353" y1="425.3645" x2="-460.9601" y2="521.7328" gradientTransform="matrix(0.7619 0.2381 -0.2381 0.7619 627.024 -96.4284)">
			<stop  offset="0.1" style="stop-color:#A5A5A7"/>
			<stop  offset="0.9" style="stop-color:#C0C0C0"/>
		</linearGradient>
		<path class="st17" d="M109.1,150.44c0-22.58,18.2-40.93,40.61-40.93c22.4,0,40.61,18.35,40.61,40.93
			c0,22.58-18.2,40.93-40.61,40.93S109.1,173.03,109.1,150.44z"/>
		
			<linearGradient id="SVGID_18_" gradientUnits="userSpaceOnUse" x1="-365.4995" y1="318.6179" x2="-332.9682" y2="407.9968" gradientTransform="matrix(0.8095 0.1905 -0.1905 0.8095 501.6192 -77.1428)">
			<stop  offset="0.1" style="stop-color:#A6A7A8"/>
			<stop  offset="0.9" style="stop-color:#BCBCBC"/>
		</linearGradient>
		<path class="st18" d="M110.47,150.44c0-21.82,17.59-39.55,39.24-39.55c21.65,0,39.24,17.73,39.24,39.55
			c0,21.82-17.59,39.55-39.24,39.55S110.47,172.26,110.47,150.44z"/>
		
			<linearGradient id="SVGID_19_" gradientUnits="userSpaceOnUse" x1="-232.7334" y1="238.0279" x2="-202.6888" y2="320.5747" gradientTransform="matrix(0.8571 0.1429 -0.1429 0.8571 376.2144 -57.8571)">
			<stop  offset="0.1" style="stop-color:#A8A8A9"/>
			<stop  offset="0.9" style="stop-color:#B8B8B8"/>
		</linearGradient>
		<path class="st19" d="M111.84,150.44c0-21.06,16.98-38.17,37.87-38.17c20.89,0,37.87,17.12,37.87,38.17
			c0,21.06-16.98,38.17-37.87,38.17C128.82,188.61,111.84,171.5,111.84,150.44z"/>
		
			<linearGradient id="SVGID_20_" gradientUnits="userSpaceOnUse" x1="-102.601" y1="180.2634" x2="-74.9456" y2="256.2458" gradientTransform="matrix(0.9048 0.0952 -0.0952 0.9048 250.8096 -38.5714)">
			<stop  offset="0.1" style="stop-color:#A9A9AA"/>
			<stop  offset="0.9" style="stop-color:#B4B4B4"/>
		</linearGradient>
		<path class="st20" d="M113.2,150.44c0-20.29,16.37-36.79,36.5-36.79s36.5,16.5,36.5,36.79c0,20.29-16.37,36.79-36.5,36.79
			C129.57,187.24,113.2,170.74,113.2,150.44z"/>
		
			<linearGradient id="SVGID_21_" gradientUnits="userSpaceOnUse" x1="21.6451" y1="141.6192" x2="47.0345" y2="211.376" gradientTransform="matrix(0.9524 0.0476 -0.0476 0.9524 125.4048 -19.2857)">
			<stop  offset="0.1" style="stop-color:#ABABAB"/>
			<stop  offset="0.9" style="stop-color:#B0B0B0"/>
		</linearGradient>
		<path class="st21" d="M114.57,150.44c0-19.53,15.76-35.41,35.13-35.41s35.13,15.88,35.13,35.41c0,19.53-15.76,35.41-35.13,35.41
			C130.33,185.86,114.57,169.97,114.57,150.44z"/>
		<path class="st22" d="M115.94,150.44c0-18.77,15.15-34.03,33.76-34.03s33.76,15.27,33.76,34.03c0,18.77-15.15,34.03-33.76,34.03
			C131.09,184.48,115.94,169.21,115.94,150.44z"/>
	</g>
</g>
</svg>
