<svg id="Layer_1" data-name="Layer 1" xmlns="http://www.w3.org/2000/svg" width="166.07968" height="117.37486" viewBox="0 0 166.07968 117.37486">
  <defs>
    <style>
      .cls-1 {
        fill: #34c759;
      }

      .cls-2 {
        fill: #fff;
      }
    </style>
  </defs>
  <g>
    <path class="cls-1" d="M86.72857,114.76548a16.65833,16.65833,0,1,1,0-23.55958A16.67791,16.67791,0,0,1,86.72857,114.76548Z" transform="translate(-1.9098 -2.26221)"/>
    <path class="cls-1" d="M107.15525,79.55408a6.20533,6.20533,0,0,1-8.77486,0,33.17515,33.17515,0,0,0-46.86322,0,6.20476,6.20476,0,1,1-8.77486-8.77486,45.59824,45.59824,0,0,1,64.41294,0A6.20431,6.20431,0,0,1,107.15525,79.55408Z" transform="translate(-1.9098 -2.26221)"/>
    <path class="cls-1" d="M126.77985,59.92948a6.20429,6.20429,0,0,1-8.77486,0,60.9597,60.9597,0,0,0-86.11243,0,6.20476,6.20476,0,1,1-8.77485-8.77486,73.3828,73.3828,0,0,1,103.66214,0A6.20429,6.20429,0,0,1,126.77985,59.92948Z" transform="translate(-1.9098 -2.26221)"/>
    <path class="cls-1" d="M146.17023,40.5391a6.20533,6.20533,0,0,1-8.77486,0,88.41256,88.41256,0,0,0-124.89318,0,6.20476,6.20476,0,0,1-8.77486-8.77486,100.71959,100.71959,0,0,1,142.4429,0A6.20429,6.20429,0,0,1,146.17023,40.5391Z" transform="translate(-1.9098 -2.26221)"/>
  </g>
  <path class="cls-1" d="M132.55548,118.88255a35.57239,35.57239,0,0,1-25.05564-10.16931,34.228,34.228,0,0,1,0-49.102,35.95132,35.95132,0,0,1,50.11129,0,34.228,34.228,0,0,1,0,49.102A35.57239,35.57239,0,0,1,132.55548,118.88255Z" transform="translate(-1.9098 -2.26221)"/>
  <ellipse class="cls-2" cx="111.80245" cy="81.90005" rx="5.84523" ry="5.57051"/>
  <ellipse class="cls-2" cx="131.26969" cy="81.90005" rx="5.84523" ry="5.57051"/>
</svg>
