<svg id="Layer_1" data-name="Layer 1" xmlns="http://www.w3.org/2000/svg" viewBox="0 0 56.95255 56.95259"><defs><style>.cls-1{fill:#0050ac;}</style></defs><path class="cls-1" d="M62.738,13.39862a1.66913,1.66913,0,0,0-2.832-.94505l-2.35941,2.36108a3.41768,3.41768,0,0,1-4.72051,0,3.3338,3.3338,0,0,1,0-4.71883L55.18554,7.7364a1.66912,1.66912,0,0,0-.94506-2.83194A10.01134,10.01134,0,0,0,43.15542,17.407L18.4856,42.07592l-.00167-.00167A10.01468,10.01468,0,0,0,5.98139,53.16244a1.66913,1.66913,0,0,0,2.832.94505l2.35942-2.36108a3.41767,3.41767,0,0,1,4.7205,0,3.3338,3.3338,0,0,1,0,4.71883l-2.35942,2.35942a1.66912,1.66912,0,0,0,.94506,2.83194A10.01135,10.01135,0,0,0,25.564,49.15406L50.23378,24.48513l.00167.00167A10.01467,10.01467,0,0,0,62.738,13.39862Z" transform="translate(-5.88344 -4.80557)"/><path class="cls-1" d="M52.82479,41.73577a9.85154,9.85154,0,0,0-2.55819.37152l-6.467-6.46623-7.08047,7.07969,6.466,6.46646a9.87141,9.87141,0,0,0-.37153,2.55975,10.0112,10.0112,0,1,0,10.0112-10.01119Zm5.4749,9.67715-.99233,3.702a1.672,1.672,0,0,1-1.17965,1.17966l-3.702.99233a1.667,1.667,0,0,1-1.61147-.43182l-2.7097-2.70969a1.6666,1.6666,0,0,1-.43182-1.61147l.99234-3.702a1.672,1.672,0,0,1,1.17965-1.17966l3.702-.99233a1.658,1.658,0,0,1,1.61147.43182l2.7097,2.70969A1.66661,1.66661,0,0,1,58.29969,51.41292Z" transform="translate(-5.88344 -4.80557)"/><path class="cls-1" d="M25.56085,17.313a10.05064,10.05064,0,0,0-2.59246-9.67226,10.25526,10.25526,0,0,0-14.15806,0A10.01262,10.01262,0,0,0,18.4826,24.39125l6.43831,6.53042,7.07925-7.07847Zm-4.36366-3.09424-.99233,3.702a1.672,1.672,0,0,1-1.17966,1.17966l-3.702.99233a1.66694,1.66694,0,0,1-1.61147-.43182l-2.7097-2.7097a1.66658,1.66658,0,0,1-.43182-1.61147l.99233-3.702a1.672,1.672,0,0,1,1.17966-1.17966l3.702-.99233a1.66271,1.66271,0,0,1,1.61147.43182l2.70969,2.70969A1.66659,1.66659,0,0,1,21.19719,14.21876Z" transform="translate(-5.88344 -4.80557)"/></svg>