<?xml version="1.0" encoding="utf-8"?>
<!-- Generator: Adobe Illustrator 25.2.0, SVG Export Plug-In . SVG Version: 6.00 Build 0)  -->
<svg version="1.1" id="Layer_1" xmlns="http://www.w3.org/2000/svg" xmlns:xlink="http://www.w3.org/1999/xlink" x="0px" y="0px"
	 viewBox="0 0 168.43 167.65" style="enable-background:new 0 0 168.43 167.65;" xml:space="preserve">
<style type="text/css">
	.st0{fill:#F5F5F5;}
	.st1{fill:url(#SVGID_1_);}
	.st2{opacity:0.9524;fill:url(#SVGID_2_);}
	.st3{opacity:0.9048;fill:url(#SVGID_3_);}
	.st4{opacity:0.8571;fill:url(#SVGID_4_);}
	.st5{opacity:0.8095;fill:url(#SVGID_5_);}
	.st6{opacity:0.7619;fill:url(#SVGID_6_);}
	.st7{opacity:0.7143;fill:url(#SVGID_7_);}
	.st8{opacity:0.6667;fill:url(#SVGID_8_);}
	.st9{opacity:0.619;fill:url(#SVGID_9_);}
	.st10{opacity:0.5714;fill:url(#SVGID_10_);}
	.st11{opacity:0.5238;fill:url(#SVGID_11_);}
	.st12{opacity:0.4762;fill:url(#SVGID_12_);}
	.st13{opacity:0.4286;fill:url(#SVGID_13_);}
	.st14{opacity:0.381;fill:url(#SVGID_14_);}
	.st15{opacity:0.3333;fill:url(#SVGID_15_);}
	.st16{opacity:0.2857;fill:url(#SVGID_16_);}
	.st17{opacity:0.2381;fill:url(#SVGID_17_);}
	.st18{opacity:0.1905;fill:url(#SVGID_18_);}
	.st19{opacity:0.1429;fill:url(#SVGID_19_);}
	.st20{opacity:0.0952;fill:url(#SVGID_20_);}
	.st21{opacity:0.0476;fill:url(#SVGID_21_);}
	.st22{opacity:0;fill:#F4F4F4;}
	.st23{fill:#0050AC;}
	.st24{fill:url(#SVGID_22_);}
	.st25{opacity:0.9524;fill:url(#SVGID_23_);}
	.st26{opacity:0.9048;fill:url(#SVGID_24_);}
	.st27{opacity:0.8571;fill:url(#SVGID_25_);}
	.st28{opacity:0.8095;fill:url(#SVGID_26_);}
	.st29{opacity:0.7619;fill:url(#SVGID_27_);}
	.st30{opacity:0.7143;fill:url(#SVGID_28_);}
	.st31{opacity:0.6667;fill:url(#SVGID_29_);}
	.st32{opacity:0.619;fill:url(#SVGID_30_);}
	.st33{opacity:0.5714;fill:url(#SVGID_31_);}
	.st34{opacity:0.5238;fill:url(#SVGID_32_);}
	.st35{opacity:0.4762;fill:url(#SVGID_33_);}
	.st36{opacity:0.4286;fill:url(#SVGID_34_);}
	.st37{opacity:0.381;fill:url(#SVGID_35_);}
	.st38{opacity:0.3333;fill:url(#SVGID_36_);}
	.st39{opacity:0.2857;fill:url(#SVGID_37_);}
	.st40{opacity:0.2381;fill:url(#SVGID_38_);}
	.st41{opacity:0.1905;fill:url(#SVGID_39_);}
	.st42{opacity:0.1429;fill:url(#SVGID_40_);}
	.st43{opacity:0.0952;fill:url(#SVGID_41_);}
	.st44{opacity:0.0476;fill:url(#SVGID_42_);}
</style>
<g>
	<circle class="st0" cx="662.62" cy="1340.59" r="78.5"/>
	<g>
		
			<linearGradient id="SVGID_1_" gradientUnits="userSpaceOnUse" x1="1726.4446" y1="1783.8501" x2="1766.814" y2="1894.7639" gradientTransform="matrix(-4.901923e-07 1 -1 -4.901923e-07 2501.9324 -406.0355)">
			<stop  offset="0.1" style="stop-color:#C8CCD7"/>
			<stop  offset="0.9" style="stop-color:#FFFFFF"/>
		</linearGradient>
		<circle class="st1" cx="662.62" cy="1340.59" r="59"/>
		
			<linearGradient id="SVGID_2_" gradientUnits="userSpaceOnUse" x1="1698.3489" y1="1835.2457" x2="1739.7561" y2="1949.0111" gradientTransform="matrix(0.0476 0.9524 -0.9524 0.0476 2382.7927 -386.7004)">
			<stop  offset="0.1" style="stop-color:#CACED8"/>
			<stop  offset="0.9" style="stop-color:#FEFEFE"/>
		</linearGradient>
		<circle class="st2" cx="662.62" cy="1340.59" r="57.71"/>
		
			<linearGradient id="SVGID_3_" gradientUnits="userSpaceOnUse" x1="1661.6149" y1="1888.4121" x2="1704.0428" y2="2004.9818" gradientTransform="matrix(0.0952 0.9048 -0.9048 0.0952 2263.6531 -367.3654)">
			<stop  offset="0.1" style="stop-color:#CCD0D9"/>
			<stop  offset="0.9" style="stop-color:#FEFEFE"/>
		</linearGradient>
		<circle class="st3" cx="662.62" cy="1340.59" r="56.42"/>
		
			<linearGradient id="SVGID_4_" gradientUnits="userSpaceOnUse" x1="1614.7593" y1="1941.9927" x2="1658.1593" y2="2061.2329" gradientTransform="matrix(0.1429 0.8571 -0.8571 0.1429 2144.5134 -348.0304)">
			<stop  offset="0.1" style="stop-color:#CED2DB"/>
			<stop  offset="0.9" style="stop-color:#FDFDFD"/>
		</linearGradient>
		<circle class="st4" cx="662.62" cy="1340.59" r="55.12"/>
		
			<linearGradient id="SVGID_5_" gradientUnits="userSpaceOnUse" x1="1556.4336" y1="1993.9926" x2="1600.7158" y2="2115.657" gradientTransform="matrix(0.1905 0.8095 -0.8095 0.1905 2025.3738 -328.6954)">
			<stop  offset="0.1" style="stop-color:#D0D4DC"/>
			<stop  offset="0.9" style="stop-color:#FDFDFD"/>
		</linearGradient>
		<circle class="st5" cx="662.62" cy="1340.59" r="53.83"/>
		
			<linearGradient id="SVGID_6_" gradientUnits="userSpaceOnUse" x1="1485.6929" y1="2041.6998" x2="1530.7168" y2="2165.4021" gradientTransform="matrix(0.2381 0.7619 -0.7619 0.2381 1906.2341 -309.3604)">
			<stop  offset="0.1" style="stop-color:#D3D6DE"/>
			<stop  offset="0.9" style="stop-color:#FCFCFC"/>
		</linearGradient>
		<circle class="st6" cx="662.62" cy="1340.59" r="52.54"/>
		
			<linearGradient id="SVGID_7_" gradientUnits="userSpaceOnUse" x1="1402.358" y1="2081.7183" x2="1447.9238" y2="2206.9092" gradientTransform="matrix(0.2857 0.7143 -0.7143 0.2857 1787.0946 -290.0253)">
			<stop  offset="0.1" style="stop-color:#D5D8DF"/>
			<stop  offset="0.9" style="stop-color:#FCFCFC"/>
		</linearGradient>
		<circle class="st7" cx="662.62" cy="1340.59" r="51.25"/>
		
			<linearGradient id="SVGID_8_" gradientUnits="userSpaceOnUse" x1="1307.4208" y1="2110.189" x2="1353.2644" y2="2236.1433" gradientTransform="matrix(0.3333 0.6667 -0.6667 0.3333 1667.955 -270.6903)">
			<stop  offset="0.1" style="stop-color:#D7DAE0"/>
			<stop  offset="0.9" style="stop-color:#FBFBFB"/>
		</linearGradient>
		<circle class="st8" cx="662.62" cy="1340.59" r="49.96"/>
		
			<linearGradient id="SVGID_9_" gradientUnits="userSpaceOnUse" x1="1203.3772" y1="2123.2585" x2="1249.1722" y2="2249.0793" gradientTransform="matrix(0.381 0.619 -0.619 0.381 1548.8153 -251.3553)">
			<stop  offset="0.1" style="stop-color:#D9DBE2"/>
			<stop  offset="0.9" style="stop-color:#FBFBFB"/>
		</linearGradient>
		<circle class="st9" cx="662.62" cy="1340.59" r="48.67"/>
		
			<linearGradient id="SVGID_10_" gradientUnits="userSpaceOnUse" x1="1094.3203" y1="2117.7681" x2="1139.6887" y2="2242.4165" gradientTransform="matrix(0.4286 0.5714 -0.5714 0.4286 1429.6757 -232.0203)">
			<stop  offset="0.1" style="stop-color:#DBDDE3"/>
			<stop  offset="0.9" style="stop-color:#FAFAFA"/>
		</linearGradient>
		<circle class="st10" cx="662.62" cy="1340.59" r="47.37"/>
		
			<linearGradient id="SVGID_11_" gradientUnits="userSpaceOnUse" x1="985.6337" y1="2092.0176" x2="1030.1667" y2="2214.3713" gradientTransform="matrix(0.4762 0.5238 -0.5238 0.4762 1310.536 -212.6852)">
			<stop  offset="0.1" style="stop-color:#DDDFE5"/>
			<stop  offset="0.9" style="stop-color:#FAFAFA"/>
		</linearGradient>
		<circle class="st11" cx="662.62" cy="1340.59" r="46.08"/>
		
			<linearGradient id="SVGID_12_" gradientUnits="userSpaceOnUse" x1="883.2512" y1="2046.3387" x2="926.5392" y2="2165.272" gradientTransform="matrix(0.5238 0.4762 -0.4762 0.5238 1191.3964 -193.3502)">
			<stop  offset="0.1" style="stop-color:#DFE1E6"/>
			<stop  offset="0.9" style="stop-color:#F9F9F9"/>
		</linearGradient>
		<path class="st12" d="M617.83,1340.59c0-24.72,20.07-44.79,44.79-44.79c24.72,0,44.79,20.07,44.79,44.79
			c0,24.72-20.07,44.79-44.79,44.79S617.83,1365.32,617.83,1340.59z"/>
		
			<linearGradient id="SVGID_13_" gradientUnits="userSpaceOnUse" x1="792.6502" y1="1983.2148" x2="834.3156" y2="2097.6897" gradientTransform="matrix(0.5714 0.4286 -0.4286 0.5714 1072.2567 -174.0152)">
			<stop  offset="0.1" style="stop-color:#E1E3E7"/>
			<stop  offset="0.9" style="stop-color:#F9F9F9"/>
		</linearGradient>
		<path class="st13" d="M619.13,1340.59c0-24.01,19.49-43.5,43.5-43.5s43.5,19.49,43.5,43.5c0,24.01-19.49,43.5-43.5,43.5
			C638.62,1384.09,619.13,1364.6,619.13,1340.59z"/>
		
			<linearGradient id="SVGID_14_" gradientUnits="userSpaceOnUse" x1="717.9111" y1="1906.8524" x2="757.6376" y2="2016.0001" gradientTransform="matrix(0.619 0.381 -0.381 0.619 953.1171 -154.6802)">
			<stop  offset="0.1" style="stop-color:#E3E5E9"/>
			<stop  offset="0.9" style="stop-color:#F8F8F8"/>
		</linearGradient>
		<path class="st14" d="M620.42,1340.59c0-23.29,18.91-42.21,42.21-42.21s42.21,18.91,42.21,42.21c0,23.29-18.91,42.21-42.21,42.21
			S620.42,1363.89,620.42,1340.59z"/>
		
			<linearGradient id="SVGID_15_" gradientUnits="userSpaceOnUse" x1="661.1629" y1="1822.3499" x2="698.7156" y2="1925.5251" gradientTransform="matrix(0.6667 0.3333 -0.3333 0.6667 833.9775 -135.3452)">
			<stop  offset="0.1" style="stop-color:#E5E7EA"/>
			<stop  offset="0.9" style="stop-color:#F8F8F8"/>
		</linearGradient>
		<path class="st15" d="M621.71,1340.59c0-22.58,18.34-40.92,40.92-40.92c22.58,0,40.91,18.34,40.91,40.92
			c0,22.58-18.34,40.92-40.91,40.92S621.71,1363.17,621.71,1340.59z"/>
		
			<linearGradient id="SVGID_16_" gradientUnits="userSpaceOnUse" x1="622.5553" y1="1734.7755" x2="657.7877" y2="1831.5758" gradientTransform="matrix(0.7143 0.2857 -0.2857 0.7143 714.8378 -116.0101)">
			<stop  offset="0.1" style="stop-color:#E7E9EC"/>
			<stop  offset="0.9" style="stop-color:#F7F7F7"/>
		</linearGradient>
		<path class="st16" d="M623,1340.59c0-21.86,17.76-39.62,39.62-39.62s39.62,17.76,39.62,39.62s-17.76,39.62-39.62,39.62
			C640.76,1380.22,623,1362.46,623,1340.59z"/>
		
			<linearGradient id="SVGID_17_" gradientUnits="userSpaceOnUse" x1="600.6587" y1="1648.4502" x2="633.5074" y2="1738.7014" gradientTransform="matrix(0.7619 0.2381 -0.2381 0.7619 595.6982 -96.6751)">
			<stop  offset="0.1" style="stop-color:#EAEBED"/>
			<stop  offset="0.9" style="stop-color:#F7F7F7"/>
		</linearGradient>
		<path class="st17" d="M624.29,1340.59c0-21.15,17.18-38.33,38.33-38.33c21.15,0,38.33,17.18,38.33,38.33
			c0,21.15-17.18,38.33-38.33,38.33S624.29,1361.74,624.29,1340.59z"/>
		
			<linearGradient id="SVGID_18_" gradientUnits="userSpaceOnUse" x1="593.0667" y1="1566.5779" x2="623.5358" y2="1650.2911" gradientTransform="matrix(0.8095 0.1905 -0.1905 0.8095 476.5585 -77.3401)">
			<stop  offset="0.1" style="stop-color:#ECECEE"/>
			<stop  offset="0.9" style="stop-color:#F6F6F6"/>
		</linearGradient>
		<path class="st18" d="M625.58,1340.59c0-20.43,16.61-37.04,37.04-37.04c20.43,0,37.04,16.61,37.04,37.04
			c0,20.43-16.61,37.04-37.04,37.04S625.58,1361.03,625.58,1340.59z"/>
		
			<linearGradient id="SVGID_19_" gradientUnits="userSpaceOnUse" x1="596.9768" y1="1491.1929" x2="625.1213" y2="1568.5192" gradientTransform="matrix(0.8571 0.1429 -0.1429 0.8571 357.4189 -58.0051)">
			<stop  offset="0.1" style="stop-color:#EEEEF0"/>
			<stop  offset="0.9" style="stop-color:#F6F6F6"/>
		</linearGradient>
		<path class="st19" d="M626.88,1340.59c0-19.72,16.03-35.75,35.75-35.75s35.75,16.03,35.75,35.75c0,19.72-16.03,35.75-35.75,35.75
			C642.91,1376.34,626.88,1360.31,626.88,1340.59z"/>
		
			<linearGradient id="SVGID_20_" gradientUnits="userSpaceOnUse" x1="609.6271" y1="1423.3179" x2="635.5385" y2="1494.5089" gradientTransform="matrix(0.9048 0.0952 -0.0952 0.9048 238.2793 -38.67)">
			<stop  offset="0.1" style="stop-color:#F0F0F1"/>
			<stop  offset="0.9" style="stop-color:#F5F5F5"/>
		</linearGradient>
		<path class="st20" d="M628.17,1340.59c0-19,15.45-34.46,34.46-34.46s34.46,15.45,34.46,34.46c0,19-15.45,34.46-34.46,34.46
			S628.17,1359.6,628.17,1340.59z"/>
		
			<linearGradient id="SVGID_21_" gradientUnits="userSpaceOnUse" x1="628.5572" y1="1363.2152" x2="652.3509" y2="1428.5878" gradientTransform="matrix(0.9524 0.0476 -0.0476 0.9524 119.1396 -19.335)">
			<stop  offset="0.1" style="stop-color:#F2F2F3"/>
			<stop  offset="0.9" style="stop-color:#F5F5F5"/>
		</linearGradient>
		<path class="st21" d="M629.46,1340.59c0-18.29,14.88-33.17,33.17-33.17c18.29,0,33.16,14.88,33.16,33.17
			c0,18.29-14.87,33.17-33.16,33.17S629.46,1358.88,629.46,1340.59z"/>
		<path class="st22" d="M630.75,1340.59c0-17.58,14.3-31.87,31.87-31.87c17.58,0,31.87,14.3,31.87,31.87
			c0,17.58-14.3,31.87-31.87,31.87C645.05,1372.47,630.75,1358.17,630.75,1340.59z"/>
	</g>
</g>
<path class="st23" d="M692.69,1340.57l-24.99-27.4v16.35h-5.31c-16.47,0-29.83,13.35-29.83,29.83v8.66l2.36-2.59
	c8.02-8.79,19.37-13.8,31.27-13.8h1.5v16.35L692.69,1340.57z"/>
<g>
	<circle class="st0" cx="83.99" cy="83.73" r="78.5"/>
	<g>
		
			<linearGradient id="SVGID_22_" gradientUnits="userSpaceOnUse" x1="469.5858" y1="2362.4824" x2="509.9551" y2="2473.3962" gradientTransform="matrix(-4.901923e-07 1 -1 -4.901923e-07 2501.9324 -406.0355)">
			<stop  offset="0.1" style="stop-color:#C8CCD7"/>
			<stop  offset="0.9" style="stop-color:#FFFFFF"/>
		</linearGradient>
		<circle class="st24" cx="83.99" cy="83.73" r="59"/>
		
			<linearGradient id="SVGID_23_" gradientUnits="userSpaceOnUse" x1="351.6357" y1="2375.4741" x2="393.0429" y2="2489.2395" gradientTransform="matrix(0.0476 0.9524 -0.9524 0.0476 2382.7927 -386.7004)">
			<stop  offset="0.1" style="stop-color:#CACED8"/>
			<stop  offset="0.9" style="stop-color:#FEFEFE"/>
		</linearGradient>
		<circle class="st25" cx="83.99" cy="83.73" r="57.71"/>
		
			<linearGradient id="SVGID_24_" gradientUnits="userSpaceOnUse" x1="221.0964" y1="2376.3196" x2="263.5243" y2="2492.8894" gradientTransform="matrix(0.0952 0.9048 -0.9048 0.0952 2263.6531 -367.3654)">
			<stop  offset="0.1" style="stop-color:#CCD0D9"/>
			<stop  offset="0.9" style="stop-color:#FEFEFE"/>
		</linearGradient>
		<circle class="st26" cx="83.99" cy="83.73" r="56.42"/>
		
			<linearGradient id="SVGID_25_" gradientUnits="userSpaceOnUse" x1="78.5837" y1="2361.0344" x2="121.9836" y2="2480.2749" gradientTransform="matrix(0.1429 0.8571 -0.8571 0.1429 2144.5134 -348.0304)">
			<stop  offset="0.1" style="stop-color:#CED2DB"/>
			<stop  offset="0.9" style="stop-color:#FDFDFD"/>
		</linearGradient>
		<circle class="st27" cx="83.99" cy="83.73" r="55.12"/>
		
			<linearGradient id="SVGID_26_" gradientUnits="userSpaceOnUse" x1="-74.0705" y1="2325.1257" x2="-29.7883" y2="2446.79" gradientTransform="matrix(0.1905 0.8095 -0.8095 0.1905 2025.3738 -328.6954)">
			<stop  offset="0.1" style="stop-color:#D0D4DC"/>
			<stop  offset="0.9" style="stop-color:#FDFDFD"/>
		</linearGradient>
		<circle class="st28" cx="83.99" cy="83.73" r="53.83"/>
		
			<linearGradient id="SVGID_27_" gradientUnits="userSpaceOnUse" x1="-233.3854" y1="2263.9429" x2="-188.3615" y2="2387.645" gradientTransform="matrix(0.2381 0.7619 -0.7619 0.2381 1906.2341 -309.3604)">
			<stop  offset="0.1" style="stop-color:#D3D6DE"/>
			<stop  offset="0.9" style="stop-color:#FCFCFC"/>
		</linearGradient>
		<circle class="st29" cx="83.99" cy="83.73" r="52.54"/>
		
			<linearGradient id="SVGID_28_" gradientUnits="userSpaceOnUse" x1="-393.8805" y1="2173.3081" x2="-348.3147" y2="2298.499" gradientTransform="matrix(0.2857 0.7143 -0.7143 0.2857 1787.0946 -290.0253)">
			<stop  offset="0.1" style="stop-color:#D5D8DF"/>
			<stop  offset="0.9" style="stop-color:#FCFCFC"/>
		</linearGradient>
		<circle class="st30" cx="83.99" cy="83.73" r="51.25"/>
		
			<linearGradient id="SVGID_29_" gradientUnits="userSpaceOnUse" x1="-547.9895" y1="2050.4324" x2="-502.1459" y2="2176.3867" gradientTransform="matrix(0.3333 0.6667 -0.6667 0.3333 1667.955 -270.6903)">
			<stop  offset="0.1" style="stop-color:#D7DAE0"/>
			<stop  offset="0.9" style="stop-color:#FBFBFB"/>
		</linearGradient>
		<circle class="st31" cx="83.99" cy="83.73" r="49.96"/>
		
			<linearGradient id="SVGID_30_" gradientUnits="userSpaceOnUse" x1="-686.463" y1="1894.9935" x2="-640.668" y2="2020.8143" gradientTransform="matrix(0.381 0.619 -0.619 0.381 1548.8153 -251.3553)">
			<stop  offset="0.1" style="stop-color:#D9DBE2"/>
			<stop  offset="0.9" style="stop-color:#FBFBFB"/>
		</linearGradient>
		<circle class="st32" cx="83.99" cy="83.73" r="48.67"/>
		
			<linearGradient id="SVGID_31_" gradientUnits="userSpaceOnUse" x1="-799.413" y1="1710.0745" x2="-754.0447" y2="1834.7229" gradientTransform="matrix(0.4286 0.5714 -0.5714 0.4286 1429.6757 -232.0203)">
			<stop  offset="0.1" style="stop-color:#DBDDE3"/>
			<stop  offset="0.9" style="stop-color:#FAFAFA"/>
		</linearGradient>
		<circle class="st33" cx="83.99" cy="83.73" r="47.37"/>
		
			<linearGradient id="SVGID_32_" gradientUnits="userSpaceOnUse" x1="-877.9284" y1="1502.5317" x2="-833.3953" y2="1624.8853" gradientTransform="matrix(0.4762 0.5238 -0.5238 0.4762 1310.536 -212.6852)">
			<stop  offset="0.1" style="stop-color:#DDDFE5"/>
			<stop  offset="0.9" style="stop-color:#FAFAFA"/>
		</linearGradient>
		<circle class="st34" cx="83.99" cy="83.73" r="46.08"/>
		
			<linearGradient id="SVGID_33_" gradientUnits="userSpaceOnUse" x1="-915.8641" y1="1282.4395" x2="-872.5759" y2="1401.3726" gradientTransform="matrix(0.5238 0.4762 -0.4762 0.5238 1191.3964 -193.3502)">
			<stop  offset="0.1" style="stop-color:#DFE1E6"/>
			<stop  offset="0.9" style="stop-color:#F9F9F9"/>
		</linearGradient>
		<path class="st35" d="M39.2,83.73c0-24.72,20.07-44.79,44.79-44.79s44.79,20.07,44.79,44.79c0,24.72-20.07,44.79-44.79,44.79
			S39.2,108.46,39.2,83.73z"/>
		
			<linearGradient id="SVGID_34_" gradientUnits="userSpaceOnUse" x1="-911.1794" y1="1061.5834" x2="-869.514" y2="1176.0582" gradientTransform="matrix(0.5714 0.4286 -0.4286 0.5714 1072.2567 -174.0152)">
			<stop  offset="0.1" style="stop-color:#E1E3E7"/>
			<stop  offset="0.9" style="stop-color:#F9F9F9"/>
		</linearGradient>
		<path class="st36" d="M40.49,83.73c0-24.01,19.49-43.5,43.5-43.5s43.5,19.49,43.5,43.5c0,24.01-19.49,43.5-43.5,43.5
			C59.99,127.23,40.49,107.74,40.49,83.73z"/>
		
			<linearGradient id="SVGID_35_" gradientUnits="userSpaceOnUse" x1="-866.2902" y1="851.4344" x2="-826.5637" y2="960.5822" gradientTransform="matrix(0.619 0.381 -0.381 0.619 953.1171 -154.6802)">
			<stop  offset="0.1" style="stop-color:#E3E5E9"/>
			<stop  offset="0.9" style="stop-color:#F8F8F8"/>
		</linearGradient>
		<path class="st37" d="M41.79,83.73c0-23.29,18.91-42.21,42.21-42.21s42.21,18.91,42.21,42.21c0,23.29-18.91,42.21-42.21,42.21
			C60.7,125.94,41.79,107.03,41.79,83.73z"/>
		
			<linearGradient id="SVGID_36_" gradientUnits="userSpaceOnUse" x1="-787.311" y1="661.298" x2="-749.7582" y2="764.4732" gradientTransform="matrix(0.6667 0.3333 -0.3333 0.6667 833.9775 -135.3452)">
			<stop  offset="0.1" style="stop-color:#E5E7EA"/>
			<stop  offset="0.9" style="stop-color:#F8F8F8"/>
		</linearGradient>
		<path class="st38" d="M43.08,83.73c0-22.58,18.34-40.92,40.92-40.92c22.58,0,40.91,18.34,40.91,40.92
			c0,22.58-18.34,40.92-40.91,40.92C61.41,124.65,43.08,106.31,43.08,83.73z"/>
		
			<linearGradient id="SVGID_37_" gradientUnits="userSpaceOnUse" x1="-682.5532" y1="497.216" x2="-647.3208" y2="594.0162" gradientTransform="matrix(0.7143 0.2857 -0.2857 0.7143 714.8378 -116.0101)">
			<stop  offset="0.1" style="stop-color:#E7E9EC"/>
			<stop  offset="0.9" style="stop-color:#F7F7F7"/>
		</linearGradient>
		<path class="st39" d="M44.37,83.73c0-21.86,17.76-39.62,39.62-39.62c21.86,0,39.62,17.76,39.62,39.62
			c0,21.86-17.76,39.62-39.62,39.62C62.13,123.36,44.37,105.6,44.37,83.73z"/>
		
			<linearGradient id="SVGID_38_" gradientUnits="userSpaceOnUse" x1="-560.8734" y1="361.8012" x2="-528.0247" y2="452.0525" gradientTransform="matrix(0.7619 0.2381 -0.2381 0.7619 595.6982 -96.6751)">
			<stop  offset="0.1" style="stop-color:#EAEBED"/>
			<stop  offset="0.9" style="stop-color:#F7F7F7"/>
		</linearGradient>
		<path class="st40" d="M45.66,83.73c0-21.15,17.18-38.33,38.33-38.33c21.15,0,38.33,17.18,38.33,38.33
			c0,21.15-17.18,38.33-38.33,38.33C62.84,122.07,45.66,104.88,45.66,83.73z"/>
		
			<linearGradient id="SVGID_39_" gradientUnits="userSpaceOnUse" x1="-430.3685" y1="254.7954" x2="-399.8994" y2="338.5087" gradientTransform="matrix(0.8095 0.1905 -0.1905 0.8095 476.5585 -77.3401)">
			<stop  offset="0.1" style="stop-color:#ECECEE"/>
			<stop  offset="0.9" style="stop-color:#F6F6F6"/>
		</linearGradient>
		<path class="st41" d="M46.95,83.73c0-20.43,16.61-37.04,37.04-37.04c20.43,0,37.04,16.61,37.04,37.04
			c0,20.43-16.61,37.04-37.04,37.04C63.56,120.77,46.95,104.17,46.95,83.73z"/>
		
			<linearGradient id="SVGID_40_" gradientUnits="userSpaceOnUse" x1="-297.6326" y1="173.9588" x2="-269.4882" y2="251.2851" gradientTransform="matrix(0.8571 0.1429 -0.1429 0.8571 357.4189 -58.0051)">
			<stop  offset="0.1" style="stop-color:#EEEEF0"/>
			<stop  offset="0.9" style="stop-color:#F6F6F6"/>
		</linearGradient>
		<path class="st42" d="M48.24,83.73c0-19.72,16.03-35.75,35.75-35.75c19.72,0,35.75,16.03,35.75,35.75
			c0,19.72-16.03,35.75-35.75,35.75S48.24,103.45,48.24,83.73z"/>
		
			<linearGradient id="SVGID_41_" gradientUnits="userSpaceOnUse" x1="-167.5294" y1="115.9637" x2="-141.618" y2="187.1548" gradientTransform="matrix(0.9048 0.0952 -0.0952 0.9048 238.2793 -38.67)">
			<stop  offset="0.1" style="stop-color:#F0F0F1"/>
			<stop  offset="0.9" style="stop-color:#F5F5F5"/>
		</linearGradient>
		<path class="st43" d="M49.54,83.73c0-19,15.45-34.46,34.46-34.46c19,0,34.46,15.45,34.46,34.46c0,19-15.45,34.46-34.46,34.46
			S49.54,102.74,49.54,83.73z"/>
		
			<linearGradient id="SVGID_42_" gradientUnits="userSpaceOnUse" x1="-43.3115" y1="77.1066" x2="-19.5178" y2="142.4792" gradientTransform="matrix(0.9524 0.0476 -0.0476 0.9524 119.1396 -19.335)">
			<stop  offset="0.1" style="stop-color:#F2F2F3"/>
			<stop  offset="0.9" style="stop-color:#F5F5F5"/>
		</linearGradient>
		<path class="st44" d="M50.83,83.73c0-18.29,14.88-33.17,33.17-33.17s33.16,14.88,33.16,33.17c0,18.29-14.87,33.17-33.16,33.17
			S50.83,102.02,50.83,83.73z"/>
		<path class="st22" d="M52.12,83.73c0-17.58,14.3-31.87,31.87-31.87s31.87,14.3,31.87,31.87c0,17.58-14.3,31.87-31.87,31.87
			S52.12,101.31,52.12,83.73z"/>
	</g>
</g>
<path class="st23" d="M114.06,83.72l-24.99-27.4v16.35h-5.31c-16.47,0-29.83,13.35-29.83,29.83v8.66l2.36-2.59
	c8.02-8.79,19.37-13.8,31.27-13.8h1.5v16.35L114.06,83.72z"/>
</svg>
