<svg id="Layer_1" data-name="Layer 1" xmlns="http://www.w3.org/2000/svg" width="24.5927" height="19.76044" viewBox="0 0 24.5927 19.76044">
  <g>
    <path d="M14.48312,21.56007a2.80448,2.80448,0,1,1,0-3.96633A2.80778,2.80778,0,0,1,14.48312,21.56007Z" transform="translate(-0.20365 -2.61978)" fill="#0050ac"/>
    <path d="M24.49036,9.06382a1.04468,1.04468,0,0,1-1.47727,0,14.88455,14.88455,0,0,0-21.02618,0A1.04459,1.04459,0,0,1,.50964,7.58654a16.95647,16.95647,0,0,1,23.98072,0A1.0445,1.0445,0,0,1,24.49036,9.06382Z" transform="translate(-0.20365 -2.61978)" fill="#0050ac"/>
    <path d="M17.922,15.63212a1.04469,1.04469,0,0,1-1.47728,0,5.58514,5.58514,0,0,0-7.88958,0,1.04459,1.04459,0,0,1-1.47727-1.47728,7.67662,7.67662,0,0,1,10.84413,0A1.04452,1.04452,0,0,1,17.922,15.63212Z" transform="translate(-0.20365 -2.61978)" fill="#0050ac"/>
    <path d="M21.22588,12.32825a1.04451,1.04451,0,0,1-1.47727,0,10.26278,10.26278,0,0,0-14.49731,0A1.04459,1.04459,0,0,1,3.774,10.851a12.35422,12.35422,0,0,1,17.45186,0A1.04451,1.04451,0,0,1,21.22588,12.32825Z" transform="translate(-0.20365 -2.61978)" fill="#0050ac"/>
  </g>
</svg>
