<svg id="Layer_1" data-name="Layer 1" xmlns="http://www.w3.org/2000/svg" xmlns:xlink="http://www.w3.org/1999/xlink" width="129" height="129.00001" viewBox="0 0 129 129.00001">
  <defs>
    <linearGradient id="Áåçûìÿííûé_ãðàäèåíò_1459" data-name="Áåçûìÿííûé ãðàäèåíò 1459" x1="42.4337" y1="3.87333" x2="86.56631" y2="125.12668" gradientUnits="userSpaceOnUse">
      <stop offset="0.1" stop-color="#c8ccd7"/>
      <stop offset="0.9" stop-color="#fff"/>
    </linearGradient>
    <linearGradient id="linear-gradient" x1="42.91694" y1="5.20104" x2="86.08306" y2="123.79898" gradientUnits="userSpaceOnUse">
      <stop offset="0.1" stop-color="#caced8"/>
      <stop offset="0.9" stop-color="#fefefe"/>
    </linearGradient>
    <linearGradient id="linear-gradient-2" x1="43.40018" y1="6.52875" x2="85.5998" y2="122.47128" gradientUnits="userSpaceOnUse">
      <stop offset="0.1" stop-color="#ccd0d9"/>
      <stop offset="0.9" stop-color="#fefefe"/>
    </linearGradient>
    <linearGradient id="linear-gradient-3" x1="43.88342" y1="7.85647" x2="85.11655" y2="121.14358" gradientUnits="userSpaceOnUse">
      <stop offset="0.1" stop-color="#ced2db"/>
      <stop offset="0.9" stop-color="#fdfdfd"/>
    </linearGradient>
    <linearGradient id="linear-gradient-4" x1="44.36666" y1="9.18418" x2="84.6333" y2="119.81588" gradientUnits="userSpaceOnUse">
      <stop offset="0.1" stop-color="#d0d4dc"/>
      <stop offset="0.9" stop-color="#fdfdfd"/>
    </linearGradient>
    <linearGradient id="linear-gradient-5" x1="44.8499" y1="10.5119" x2="84.15005" y2="118.48818" gradientUnits="userSpaceOnUse">
      <stop offset="0.1" stop-color="#d3d6de"/>
      <stop offset="0.9" stop-color="#fcfcfc"/>
    </linearGradient>
    <linearGradient id="linear-gradient-6" x1="45.33314" y1="11.83961" x2="83.6668" y2="117.16047" gradientUnits="userSpaceOnUse">
      <stop offset="0.1" stop-color="#d5d8df"/>
      <stop offset="0.9" stop-color="#fcfcfc"/>
    </linearGradient>
    <linearGradient id="linear-gradient-7" x1="45.81638" y1="13.16732" x2="83.18354" y2="115.83277" gradientUnits="userSpaceOnUse">
      <stop offset="0.1" stop-color="#d7dae0"/>
      <stop offset="0.9" stop-color="#fbfbfb"/>
    </linearGradient>
    <linearGradient id="linear-gradient-8" x1="46.29961" y1="14.49504" x2="82.70029" y2="114.50507" gradientUnits="userSpaceOnUse">
      <stop offset="0.1" stop-color="#d9dbe2"/>
      <stop offset="0.9" stop-color="#fbfbfb"/>
    </linearGradient>
    <linearGradient id="linear-gradient-9" x1="46.78285" y1="15.82275" x2="82.21704" y2="113.17737" gradientUnits="userSpaceOnUse">
      <stop offset="0.1" stop-color="#dbdde3"/>
      <stop offset="0.9" stop-color="#fafafa"/>
    </linearGradient>
    <linearGradient id="linear-gradient-10" x1="47.26609" y1="17.15046" x2="81.73379" y2="111.84967" gradientUnits="userSpaceOnUse">
      <stop offset="0.1" stop-color="#dddfe5"/>
      <stop offset="0.9" stop-color="#fafafa"/>
    </linearGradient>
    <linearGradient id="linear-gradient-11" x1="48.90507" y1="19.71588" x2="82.40627" y2="111.75967" gradientUnits="userSpaceOnUse">
      <stop offset="0.1" stop-color="#dfe1e6"/>
      <stop offset="0.9" stop-color="#f9f9f9"/>
    </linearGradient>
    <linearGradient id="linear-gradient-12" x1="49.38831" y1="21.04359" x2="81.92302" y2="110.43197" gradientUnits="userSpaceOnUse">
      <stop offset="0.1" stop-color="#e1e3e7"/>
      <stop offset="0.9" stop-color="#f9f9f9"/>
    </linearGradient>
    <linearGradient id="linear-gradient-13" x1="49.87155" y1="22.3713" x2="81.43977" y2="109.10427" gradientUnits="userSpaceOnUse">
      <stop offset="0.1" stop-color="#e3e5e9"/>
      <stop offset="0.9" stop-color="#f8f8f8"/>
    </linearGradient>
    <linearGradient id="linear-gradient-14" x1="50.35479" y1="23.69902" x2="80.95652" y2="107.77657" gradientUnits="userSpaceOnUse">
      <stop offset="0.1" stop-color="#e5e7ea"/>
      <stop offset="0.9" stop-color="#f8f8f8"/>
    </linearGradient>
    <linearGradient id="linear-gradient-15" x1="50.83803" y1="25.02673" x2="80.47327" y2="106.44887" gradientUnits="userSpaceOnUse">
      <stop offset="0.1" stop-color="#e7e9ec"/>
      <stop offset="0.9" stop-color="#f7f7f7"/>
    </linearGradient>
    <linearGradient id="linear-gradient-16" x1="51.32127" y1="26.35444" x2="79.99001" y2="105.12117" gradientUnits="userSpaceOnUse">
      <stop offset="0.1" stop-color="#eaebed"/>
      <stop offset="0.9" stop-color="#f7f7f7"/>
    </linearGradient>
    <linearGradient id="linear-gradient-17" x1="51.80451" y1="27.68216" x2="79.50676" y2="103.79347" gradientUnits="userSpaceOnUse">
      <stop offset="0.1" stop-color="#ececee"/>
      <stop offset="0.9" stop-color="#f6f6f6"/>
    </linearGradient>
    <linearGradient id="linear-gradient-18" x1="52.28775" y1="29.00987" x2="79.02351" y2="102.46577" gradientUnits="userSpaceOnUse">
      <stop offset="0.1" stop-color="#eeeef0"/>
      <stop offset="0.9" stop-color="#f6f6f6"/>
    </linearGradient>
    <linearGradient id="linear-gradient-19" x1="52.77099" y1="30.33758" x2="78.54026" y2="101.13807" gradientUnits="userSpaceOnUse">
      <stop offset="0.1" stop-color="#f0f0f1"/>
      <stop offset="0.9" stop-color="#f5f5f5"/>
    </linearGradient>
    <linearGradient id="linear-gradient-20" x1="53.25423" y1="31.6653" x2="78.05701" y2="99.81037" gradientUnits="userSpaceOnUse">
      <stop offset="0.1" stop-color="#f2f2f3"/>
      <stop offset="0.9" stop-color="#f5f5f5"/>
    </linearGradient>
  </defs>
  <g>
    <circle cx="64.5" cy="64.5" r="64.5" fill="url(#Áåçûìÿííûé_ãðàäèåíò_1459)"/>
    <circle cx="64.49999" cy="64.5" r="63.08782" opacity="0.95238" fill="url(#linear-gradient)"/>
    <circle cx="64.49997" cy="64.5" r="61.67565" opacity="0.90476" fill="url(#linear-gradient-2)"/>
    <circle cx="64.49996" cy="64.49999" r="60.26347" opacity="0.85714" fill="url(#linear-gradient-3)"/>
    <circle cx="64.49994" cy="64.49999" r="58.85129" opacity="0.80952" fill="url(#linear-gradient-4)"/>
    <circle cx="64.49993" cy="64.49999" r="57.43911" opacity="0.7619" fill="url(#linear-gradient-5)"/>
    <circle cx="64.49992" cy="64.49998" r="56.02694" opacity="0.71429" fill="url(#linear-gradient-6)"/>
    <circle cx="64.4999" cy="64.49998" r="54.61476" opacity="0.66667" fill="url(#linear-gradient-7)"/>
    <circle cx="64.49989" cy="64.49997" r="53.20258" opacity="0.61905" fill="url(#linear-gradient-8)"/>
    <circle cx="64.49987" cy="64.49997" r="51.7904" opacity="0.57143" fill="url(#linear-gradient-9)"/>
    <circle cx="64.49986" cy="64.49997" r="50.37823" opacity="0.52381" fill="url(#linear-gradient-10)"/>
    <path d="M65.65558,114.70381a48.966,48.966,0,1,1,48.96634-48.96634A48.98688,48.98688,0,0,1,65.65558,114.70381Z" transform="translate(-1.15574 -1.2377)" opacity="0.47619" fill="url(#linear-gradient-11)"/>
    <path d="M65.65557,113.29164a47.55377,47.55377,0,1,1,47.55419-47.55419A47.57659,47.57659,0,0,1,65.65557,113.29164Z" transform="translate(-1.15574 -1.2377)" opacity="0.42857" fill="url(#linear-gradient-12)"/>
    <path d="M65.65555,111.87947a46.14158,46.14158,0,1,1,46.142-46.142A46.16631,46.16631,0,0,1,65.65555,111.87947Z" transform="translate(-1.15574 -1.2377)" opacity="0.38095" fill="url(#linear-gradient-13)"/>
    <path d="M65.65554,110.4673a44.7294,44.7294,0,1,1,44.72989-44.72989A44.756,44.756,0,0,1,65.65554,110.4673Z" transform="translate(-1.15574 -1.2377)" opacity="0.33333" fill="url(#linear-gradient-14)"/>
    <path d="M65.65553,109.05512a43.31721,43.31721,0,1,1,43.31773-43.31773A43.34575,43.34575,0,0,1,65.65553,109.05512Z" transform="translate(-1.15574 -1.2377)" opacity="0.28571" fill="url(#linear-gradient-15)"/>
    <path d="M65.65551,107.643A41.905,41.905,0,1,1,107.5611,65.73737,41.93547,41.93547,0,0,1,65.65551,107.643Z" transform="translate(-1.15574 -1.2377)" opacity="0.2381" fill="url(#linear-gradient-16)"/>
    <path d="M65.6555,106.23078a40.49284,40.49284,0,1,1,40.49343-40.49344A40.52519,40.52519,0,0,1,65.6555,106.23078Z" transform="translate(-1.15574 -1.2377)" opacity="0.19048" fill="url(#linear-gradient-17)"/>
    <path d="M65.65548,104.81861a39.08065,39.08065,0,1,1,39.08129-39.08129A39.11492,39.11492,0,0,1,65.65548,104.81861Z" transform="translate(-1.15574 -1.2377)" opacity="0.14286" fill="url(#linear-gradient-18)"/>
    <path d="M65.65547,103.40643A37.66846,37.66846,0,1,1,103.3246,65.7373,37.70464,37.70464,0,0,1,65.65547,103.40643Z" transform="translate(-1.15574 -1.2377)" opacity="0.09524" fill="url(#linear-gradient-19)"/>
    <path d="M65.65546,101.99426a36.25628,36.25628,0,1,1,36.257-36.257A36.29436,36.29436,0,0,1,65.65546,101.99426Z" transform="translate(-1.15574 -1.2377)" opacity="0.04762" fill="url(#linear-gradient-20)"/>
    <path d="M65.65544,100.58209a34.84409,34.84409,0,1,1,34.84483-34.84483A34.88409,34.88409,0,0,1,65.65544,100.58209Z" transform="translate(-1.15574 -1.2377)" fill="#f4f4f4" opacity="0"/>
  </g>
</svg>
