<svg id="Layer_1" data-name="Layer 1" xmlns="http://www.w3.org/2000/svg" xmlns:xlink="http://www.w3.org/1999/xlink" width="158" height="158" viewBox="0 0 158 158">
  <defs>
    <linearGradient id="Áåçûìÿííûé_ãðàäèåíò_1459" data-name="Áåçûìÿííûé ãðàäèåíò 1459" x1="57.4337" y1="18.37332" x2="101.56631" y2="139.62668" gradientUnits="userSpaceOnUse">
      <stop offset="0.1" stop-color="#c8ccd7"/>
      <stop offset="0.9" stop-color="#fff"/>
    </linearGradient>
    <linearGradient id="linear-gradient" x1="57.91694" y1="19.70104" x2="101.08306" y2="138.29898" gradientUnits="userSpaceOnUse">
      <stop offset="0.1" stop-color="#caced8"/>
      <stop offset="0.9" stop-color="#fefefe"/>
    </linearGradient>
    <linearGradient id="linear-gradient-2" x1="58.40018" y1="21.02875" x2="100.5998" y2="136.97127" gradientUnits="userSpaceOnUse">
      <stop offset="0.1" stop-color="#ccd0d9"/>
      <stop offset="0.9" stop-color="#fefefe"/>
    </linearGradient>
    <linearGradient id="linear-gradient-3" x1="58.88342" y1="22.35647" x2="100.11655" y2="135.64357" gradientUnits="userSpaceOnUse">
      <stop offset="0.1" stop-color="#ced2db"/>
      <stop offset="0.9" stop-color="#fdfdfd"/>
    </linearGradient>
    <linearGradient id="linear-gradient-4" x1="59.36666" y1="23.68418" x2="99.6333" y2="134.31587" gradientUnits="userSpaceOnUse">
      <stop offset="0.1" stop-color="#d0d4dc"/>
      <stop offset="0.9" stop-color="#fdfdfd"/>
    </linearGradient>
    <linearGradient id="linear-gradient-5" x1="59.8499" y1="25.01189" x2="99.15005" y2="132.98817" gradientUnits="userSpaceOnUse">
      <stop offset="0.1" stop-color="#d3d6de"/>
      <stop offset="0.9" stop-color="#fcfcfc"/>
    </linearGradient>
    <linearGradient id="linear-gradient-6" x1="60.33314" y1="26.33961" x2="98.6668" y2="131.66047" gradientUnits="userSpaceOnUse">
      <stop offset="0.1" stop-color="#d5d8df"/>
      <stop offset="0.9" stop-color="#fcfcfc"/>
    </linearGradient>
    <linearGradient id="linear-gradient-7" x1="60.81638" y1="27.66732" x2="98.18354" y2="130.33277" gradientUnits="userSpaceOnUse">
      <stop offset="0.1" stop-color="#d7dae0"/>
      <stop offset="0.9" stop-color="#fbfbfb"/>
    </linearGradient>
    <linearGradient id="linear-gradient-8" x1="61.29961" y1="28.99503" x2="97.70029" y2="129.00507" gradientUnits="userSpaceOnUse">
      <stop offset="0.1" stop-color="#d9dbe2"/>
      <stop offset="0.9" stop-color="#fbfbfb"/>
    </linearGradient>
    <linearGradient id="linear-gradient-9" x1="61.78285" y1="30.32275" x2="97.21704" y2="127.67737" gradientUnits="userSpaceOnUse">
      <stop offset="0.1" stop-color="#dbdde3"/>
      <stop offset="0.9" stop-color="#fafafa"/>
    </linearGradient>
    <linearGradient id="linear-gradient-10" x1="62.26609" y1="31.65046" x2="96.73379" y2="126.34967" gradientUnits="userSpaceOnUse">
      <stop offset="0.1" stop-color="#dddfe5"/>
      <stop offset="0.9" stop-color="#fafafa"/>
    </linearGradient>
    <linearGradient id="linear-gradient-11" x1="64.48704" y1="34.38801" x2="97.98824" y2="126.4318" gradientUnits="userSpaceOnUse">
      <stop offset="0.1" stop-color="#dfe1e6"/>
      <stop offset="0.9" stop-color="#f9f9f9"/>
    </linearGradient>
    <linearGradient id="linear-gradient-12" x1="64.97028" y1="35.71572" x2="97.50499" y2="125.1041" gradientUnits="userSpaceOnUse">
      <stop offset="0.1" stop-color="#e1e3e7"/>
      <stop offset="0.9" stop-color="#f9f9f9"/>
    </linearGradient>
    <linearGradient id="linear-gradient-13" x1="65.45352" y1="37.04344" x2="97.02174" y2="123.7764" gradientUnits="userSpaceOnUse">
      <stop offset="0.1" stop-color="#e3e5e9"/>
      <stop offset="0.9" stop-color="#f8f8f8"/>
    </linearGradient>
    <linearGradient id="linear-gradient-14" x1="65.93676" y1="38.37115" x2="96.53849" y2="122.4487" gradientUnits="userSpaceOnUse">
      <stop offset="0.1" stop-color="#e5e7ea"/>
      <stop offset="0.9" stop-color="#f8f8f8"/>
    </linearGradient>
    <linearGradient id="linear-gradient-15" x1="66.42" y1="39.69886" x2="96.05523" y2="121.121" gradientUnits="userSpaceOnUse">
      <stop offset="0.1" stop-color="#e7e9ec"/>
      <stop offset="0.9" stop-color="#f7f7f7"/>
    </linearGradient>
    <linearGradient id="linear-gradient-16" x1="66.90324" y1="41.02657" x2="95.57198" y2="119.7933" gradientUnits="userSpaceOnUse">
      <stop offset="0.1" stop-color="#eaebed"/>
      <stop offset="0.9" stop-color="#f7f7f7"/>
    </linearGradient>
    <linearGradient id="linear-gradient-17" x1="67.38648" y1="42.35429" x2="95.08873" y2="118.4656" gradientUnits="userSpaceOnUse">
      <stop offset="0.1" stop-color="#ececee"/>
      <stop offset="0.9" stop-color="#f6f6f6"/>
    </linearGradient>
    <linearGradient id="linear-gradient-18" x1="67.86972" y1="43.682" x2="94.60548" y2="117.1379" gradientUnits="userSpaceOnUse">
      <stop offset="0.1" stop-color="#eeeef0"/>
      <stop offset="0.9" stop-color="#f6f6f6"/>
    </linearGradient>
    <linearGradient id="linear-gradient-19" x1="68.35296" y1="45.00971" x2="94.12223" y2="115.8102" gradientUnits="userSpaceOnUse">
      <stop offset="0.1" stop-color="#f0f0f1"/>
      <stop offset="0.9" stop-color="#f5f5f5"/>
    </linearGradient>
    <linearGradient id="linear-gradient-20" x1="68.8362" y1="46.33743" x2="93.63897" y2="114.4825" gradientUnits="userSpaceOnUse">
      <stop offset="0.1" stop-color="#f2f2f3"/>
      <stop offset="0.9" stop-color="#f5f5f5"/>
    </linearGradient>
  </defs>
  <g>
    <circle cx="79" cy="79" r="79" fill="#f5f5f5"/>
    <g>
      <circle cx="79.5" cy="79" r="64.5" fill="url(#Áåçûìÿííûé_ãðàäèåíò_1459)"/>
      <circle cx="79.49999" cy="79" r="63.08782" opacity="0.95238" fill="url(#linear-gradient)"/>
      <circle cx="79.49997" cy="78.99999" r="61.67565" opacity="0.90476" fill="url(#linear-gradient-2)"/>
      <circle cx="79.49996" cy="78.99999" r="60.26347" opacity="0.85714" fill="url(#linear-gradient-3)"/>
      <circle cx="79.49994" cy="78.99999" r="58.85129" opacity="0.80952" fill="url(#linear-gradient-4)"/>
      <circle cx="79.49993" cy="78.99998" r="57.43911" opacity="0.7619" fill="url(#linear-gradient-5)"/>
      <circle cx="79.49992" cy="78.99998" r="56.02694" opacity="0.71429" fill="url(#linear-gradient-6)"/>
      <circle cx="79.4999" cy="78.99998" r="54.61476" opacity="0.66667" fill="url(#linear-gradient-7)"/>
      <circle cx="79.49989" cy="78.99997" r="53.20258" opacity="0.61905" fill="url(#linear-gradient-8)"/>
      <circle cx="79.49987" cy="78.99997" r="51.7904" opacity="0.57143" fill="url(#linear-gradient-9)"/>
      <circle cx="79.49986" cy="78.99996" r="50.37823" opacity="0.52381" fill="url(#linear-gradient-10)"/>
      <path d="M81.23755,129.37594A48.966,48.966,0,1,1,130.20389,80.4096,48.98688,48.98688,0,0,1,81.23755,129.37594Z" transform="translate(-1.7377 -1.40984)" opacity="0.47619" fill="url(#linear-gradient-11)"/>
      <path d="M81.23754,127.96377a47.55377,47.55377,0,1,1,47.55418-47.55419A47.57659,47.57659,0,0,1,81.23754,127.96377Z" transform="translate(-1.7377 -1.40984)" opacity="0.42857" fill="url(#linear-gradient-12)"/>
      <path d="M81.23752,126.5516a46.14158,46.14158,0,1,1,46.142-46.142A46.16631,46.16631,0,0,1,81.23752,126.5516Z" transform="translate(-1.7377 -1.40984)" opacity="0.38095" fill="url(#linear-gradient-13)"/>
      <path d="M81.23751,125.13943a44.7294,44.7294,0,1,1,44.72988-44.72989A44.756,44.756,0,0,1,81.23751,125.13943Z" transform="translate(-1.7377 -1.40984)" opacity="0.33333" fill="url(#linear-gradient-14)"/>
      <path d="M81.23749,123.72725a43.31721,43.31721,0,1,1,43.31774-43.31773A43.34575,43.34575,0,0,1,81.23749,123.72725Z" transform="translate(-1.7377 -1.40984)" opacity="0.28571" fill="url(#linear-gradient-15)"/>
      <path d="M81.23748,122.31508A41.905,41.905,0,1,1,123.14306,80.4095,41.93547,41.93547,0,0,1,81.23748,122.31508Z" transform="translate(-1.7377 -1.40984)" opacity="0.2381" fill="url(#linear-gradient-16)"/>
      <path d="M81.23747,120.90291A40.49284,40.49284,0,1,1,121.7309,80.40948,40.5252,40.5252,0,0,1,81.23747,120.90291Z" transform="translate(-1.7377 -1.40984)" opacity="0.19048" fill="url(#linear-gradient-17)"/>
      <path d="M81.23745,119.49074a39.08065,39.08065,0,1,1,39.08128-39.08129A39.11492,39.11492,0,0,1,81.23745,119.49074Z" transform="translate(-1.7377 -1.40984)" opacity="0.14286" fill="url(#linear-gradient-18)"/>
      <path d="M81.23744,118.07856a37.66846,37.66846,0,1,1,37.66913-37.66913A37.70464,37.70464,0,0,1,81.23744,118.07856Z" transform="translate(-1.7377 -1.40984)" opacity="0.09524" fill="url(#linear-gradient-19)"/>
      <path d="M81.23742,116.66639a36.25628,36.25628,0,1,1,36.257-36.257A36.29436,36.29436,0,0,1,81.23742,116.66639Z" transform="translate(-1.7377 -1.40984)" opacity="0.04762" fill="url(#linear-gradient-20)"/>
      <path d="M81.23741,115.25422a34.84409,34.84409,0,1,1,34.84483-34.84483A34.88409,34.88409,0,0,1,81.23741,115.25422Z" transform="translate(-1.7377 -1.40984)" fill="#f4f4f4" opacity="0"/>
    </g>
  </g>
</svg>
