<?xml version="1.0" encoding="utf-8"?>
<!-- Generator: Adobe Illustrator 25.2.0, SVG Export Plug-In . SVG Version: 6.00 Build 0)  -->
<svg version="1.1" id="Layer_1" xmlns="http://www.w3.org/2000/svg" xmlns:xlink="http://www.w3.org/1999/xlink" x="0px" y="0px"
	 viewBox="0 0 168.43 167.65" style="enable-background:new 0 0 168.43 167.65;" xml:space="preserve">
<style type="text/css">
	.st0{fill:#F5F5F5;}
	.st1{fill:url(#SVGID_1_);}
	.st2{opacity:0.9524;fill:url(#SVGID_2_);}
	.st3{opacity:0.9048;fill:url(#SVGID_3_);}
	.st4{opacity:0.8571;fill:url(#SVGID_4_);}
	.st5{opacity:0.8095;fill:url(#SVGID_5_);}
	.st6{opacity:0.7619;fill:url(#SVGID_6_);}
	.st7{opacity:0.7143;fill:url(#SVGID_7_);}
	.st8{opacity:0.6667;fill:url(#SVGID_8_);}
	.st9{opacity:0.619;fill:url(#SVGID_9_);}
	.st10{opacity:0.5714;fill:url(#SVGID_10_);}
	.st11{opacity:0.5238;fill:url(#SVGID_11_);}
	.st12{opacity:0.4762;fill:url(#SVGID_12_);}
	.st13{opacity:0.4286;fill:url(#SVGID_13_);}
	.st14{opacity:0.381;fill:url(#SVGID_14_);}
	.st15{opacity:0.3333;fill:url(#SVGID_15_);}
	.st16{opacity:0.2857;fill:url(#SVGID_16_);}
	.st17{opacity:0.2381;fill:url(#SVGID_17_);}
	.st18{opacity:0.1905;fill:url(#SVGID_18_);}
	.st19{opacity:0.1429;fill:url(#SVGID_19_);}
	.st20{opacity:0.0952;fill:url(#SVGID_20_);}
	.st21{opacity:0.0476;fill:url(#SVGID_21_);}
	.st22{opacity:0;fill:#ACACAC;}
	.st23{fill:#00476A;}
</style>
<g>
	<circle class="st0" cx="83.99" cy="83.73" r="79"/>
	<g>
		
			<linearGradient id="SVGID_1_" gradientUnits="userSpaceOnUse" x1="468.3683" y1="2359.1375" x2="511.1726" y2="2476.7412" gradientTransform="matrix(-4.901923e-07 1 -1 -4.901923e-07 2501.9324 -406.0355)">
			<stop  offset="0.1" style="stop-color:#8D9098"/>
			<stop  offset="0.9" style="stop-color:#FFFFFF"/>
		</linearGradient>
		<ellipse class="st1" cx="83.99" cy="83.73" rx="62.5" ry="63"/>
		
			<linearGradient id="SVGID_2_" gradientUnits="userSpaceOnUse" x1="350.381" y1="2372.0266" x2="394.2976" y2="2492.6868" gradientTransform="matrix(0.0476 0.9524 -0.9524 0.0476 2382.7927 -386.7004)">
			<stop  offset="0.1" style="stop-color:#8E9199"/>
			<stop  offset="0.9" style="stop-color:#FBFBFB"/>
		</linearGradient>
		<ellipse class="st2" cx="83.99" cy="83.73" rx="61.13" ry="61.62"/>
		
			<linearGradient id="SVGID_3_" gradientUnits="userSpaceOnUse" x1="219.8033" y1="2372.7668" x2="264.8174" y2="2496.4421" gradientTransform="matrix(0.0952 0.9048 -0.9048 0.0952 2263.6531 -367.3654)">
			<stop  offset="0.1" style="stop-color:#90939A"/>
			<stop  offset="0.9" style="stop-color:#F7F7F7"/>
		</linearGradient>
		<ellipse class="st3" cx="83.99" cy="83.73" rx="59.76" ry="60.24"/>
		
			<linearGradient id="SVGID_4_" gradientUnits="userSpaceOnUse" x1="77.2518" y1="2357.3752" x2="123.3154" y2="2483.9341" gradientTransform="matrix(0.1429 0.8571 -0.8571 0.1429 2144.5134 -348.0304)">
			<stop  offset="0.1" style="stop-color:#91949B"/>
			<stop  offset="0.9" style="stop-color:#F3F3F3"/>
		</linearGradient>
		<ellipse class="st4" cx="83.99" cy="83.73" rx="58.39" ry="58.86"/>
		
			<linearGradient id="SVGID_5_" gradientUnits="userSpaceOnUse" x1="-75.4404" y1="2321.3618" x2="-28.4184" y2="2450.554" gradientTransform="matrix(0.1905 0.8095 -0.8095 0.1905 2025.3738 -328.6954)">
			<stop  offset="0.1" style="stop-color:#93959C"/>
			<stop  offset="0.9" style="stop-color:#EFEFEF"/>
		</linearGradient>
		<ellipse class="st5" cx="83.99" cy="83.73" rx="57.03" ry="57.48"/>
		
			<linearGradient id="SVGID_6_" gradientUnits="userSpaceOnUse" x1="-234.7912" y1="2260.0803" x2="-186.9557" y2="2391.5076" gradientTransform="matrix(0.2381 0.7619 -0.7619 0.2381 1906.2341 -309.3604)">
			<stop  offset="0.1" style="stop-color:#94979D"/>
			<stop  offset="0.9" style="stop-color:#EBEBEB"/>
		</linearGradient>
		<ellipse class="st6" cx="83.99" cy="83.73" rx="55.66" ry="56.1"/>
		
			<linearGradient id="SVGID_7_" gradientUnits="userSpaceOnUse" x1="-395.318" y1="2169.3586" x2="-346.8773" y2="2302.4485" gradientTransform="matrix(0.2857 0.7143 -0.7143 0.2857 1787.0946 -290.0253)">
			<stop  offset="0.1" style="stop-color:#96989E"/>
			<stop  offset="0.9" style="stop-color:#E7E7E7"/>
		</linearGradient>
		<ellipse class="st7" cx="83.99" cy="83.73" rx="54.29" ry="54.72"/>
		
			<linearGradient id="SVGID_8_" gradientUnits="userSpaceOnUse" x1="-549.452" y1="2046.4144" x2="-500.6835" y2="2180.4045" gradientTransform="matrix(0.3333 0.6667 -0.6667 0.3333 1667.955 -270.6903)">
			<stop  offset="0.1" style="stop-color:#97999F"/>
			<stop  offset="0.9" style="stop-color:#E3E3E3"/>
		</linearGradient>
		<ellipse class="st8" cx="83.99" cy="83.73" rx="52.92" ry="53.34"/>
		
			<linearGradient id="SVGID_9_" gradientUnits="userSpaceOnUse" x1="-687.9408" y1="1890.9333" x2="-639.1902" y2="2024.8745" gradientTransform="matrix(0.381 0.619 -0.619 0.381 1548.8153 -251.3553)">
			<stop  offset="0.1" style="stop-color:#999BA0"/>
			<stop  offset="0.9" style="stop-color:#DFDFDF"/>
		</linearGradient>
		<ellipse class="st9" cx="83.99" cy="83.73" rx="51.55" ry="51.97"/>
		
			<linearGradient id="SVGID_10_" gradientUnits="userSpaceOnUse" x1="-800.8938" y1="1706.0061" x2="-752.5639" y2="1838.7913" gradientTransform="matrix(0.4286 0.5714 -0.5714 0.4286 1429.6757 -232.0203)">
			<stop  offset="0.1" style="stop-color:#9A9CA1"/>
			<stop  offset="0.9" style="stop-color:#DBDBDB"/>
		</linearGradient>
		<ellipse class="st10" cx="83.99" cy="83.73" rx="50.18" ry="50.59"/>
		
			<linearGradient id="SVGID_11_" gradientUnits="userSpaceOnUse" x1="-879.3974" y1="1498.4957" x2="-831.9264" y2="1628.9213" gradientTransform="matrix(0.4762 0.5238 -0.5238 0.4762 1310.536 -212.6852)">
			<stop  offset="0.1" style="stop-color:#9C9DA2"/>
			<stop  offset="0.9" style="stop-color:#D7D7D7"/>
		</linearGradient>
		<ellipse class="st11" cx="83.99" cy="83.73" rx="48.82" ry="49.21"/>
		
			<linearGradient id="SVGID_12_" gradientUnits="userSpaceOnUse" x1="-917.3052" y1="1278.4799" x2="-871.1348" y2="1405.3322" gradientTransform="matrix(0.5238 0.4762 -0.4762 0.5238 1191.3964 -193.3502)">
			<stop  offset="0.1" style="stop-color:#9D9FA2"/>
			<stop  offset="0.9" style="stop-color:#D4D4D4"/>
		</linearGradient>
		<path class="st12" d="M36.55,83.73c0-26.4,21.26-47.83,47.45-47.83c26.19,0,47.45,21.43,47.45,47.83
			c0,26.4-21.26,47.83-47.45,47.83S36.55,110.13,36.55,83.73z"/>
		
			<linearGradient id="SVGID_13_" gradientUnits="userSpaceOnUse" x1="-912.5771" y1="1057.7435" x2="-868.1165" y2="1179.8979" gradientTransform="matrix(0.5714 0.4286 -0.4286 0.5714 1072.2567 -174.0152)">
			<stop  offset="0.1" style="stop-color:#9FA0A3"/>
			<stop  offset="0.9" style="stop-color:#D0D0D0"/>
		</linearGradient>
		<path class="st13" d="M37.91,83.73c0-25.64,20.65-46.45,46.08-46.45c25.43,0,46.08,20.81,46.08,46.45
			c0,25.64-20.65,46.45-46.08,46.45S37.91,109.37,37.91,83.73z"/>
		
			<linearGradient id="SVGID_14_" gradientUnits="userSpaceOnUse" x1="-867.6301" y1="847.7532" x2="-825.2238" y2="964.2633" gradientTransform="matrix(0.619 0.381 -0.381 0.619 953.1171 -154.6802)">
			<stop  offset="0.1" style="stop-color:#A0A1A4"/>
			<stop  offset="0.9" style="stop-color:#CCCCCC"/>
		</linearGradient>
		<path class="st14" d="M39.28,83.73c0-24.87,20.04-45.07,44.71-45.07s44.71,20.2,44.71,45.07c0,24.87-20.04,45.07-44.71,45.07
			C59.32,128.8,39.28,108.61,39.28,83.73z"/>
		
			<linearGradient id="SVGID_15_" gradientUnits="userSpaceOnUse" x1="-788.5819" y1="657.8062" x2="-748.4874" y2="767.9649" gradientTransform="matrix(0.6667 0.3333 -0.3333 0.6667 833.9775 -135.3452)">
			<stop  offset="0.1" style="stop-color:#A2A3A5"/>
			<stop  offset="0.9" style="stop-color:#C8C8C8"/>
		</linearGradient>
		<path class="st15" d="M40.65,83.73c0-24.11,19.43-43.69,43.34-43.69s43.34,19.58,43.34,43.69c0,24.11-19.42,43.69-43.34,43.69
			C60.08,127.42,40.65,107.84,40.65,83.73z"/>
		
			<linearGradient id="SVGID_16_" gradientUnits="userSpaceOnUse" x1="-683.7474" y1="493.9351" x2="-646.1266" y2="597.2972" gradientTransform="matrix(0.7143 0.2857 -0.2857 0.7143 714.8378 -116.0101)">
			<stop  offset="0.1" style="stop-color:#A3A4A6"/>
			<stop  offset="0.9" style="stop-color:#C4C4C4"/>
		</linearGradient>
		<path class="st16" d="M42.02,83.73c0-23.35,18.81-42.31,41.97-42.31s41.97,18.96,41.97,42.31c0,23.35-18.81,42.31-41.97,42.31
			C60.83,126.04,42.02,107.08,42.02,83.73z"/>
		
			<linearGradient id="SVGID_17_" gradientUnits="userSpaceOnUse" x1="-561.9866" y1="358.7427" x2="-526.9114" y2="455.111" gradientTransform="matrix(0.7619 0.2381 -0.2381 0.7619 595.6982 -96.6751)">
			<stop  offset="0.1" style="stop-color:#A5A5A7"/>
			<stop  offset="0.9" style="stop-color:#C0C0C0"/>
		</linearGradient>
		<path class="st17" d="M43.39,83.73c0-22.58,18.2-40.93,40.61-40.93s40.61,18.35,40.61,40.93c0,22.58-18.2,40.93-40.61,40.93
			C61.59,124.66,43.39,106.32,43.39,83.73z"/>
		
			<linearGradient id="SVGID_18_" gradientUnits="userSpaceOnUse" x1="-431.3996" y1="251.9626" x2="-398.8683" y2="341.3415" gradientTransform="matrix(0.8095 0.1905 -0.1905 0.8095 476.5585 -77.3401)">
			<stop  offset="0.1" style="stop-color:#A6A7A8"/>
			<stop  offset="0.9" style="stop-color:#BCBCBC"/>
		</linearGradient>
		<path class="st18" d="M44.76,83.73c0-21.82,17.59-39.55,39.24-39.55s39.24,17.73,39.24,39.55c0,21.82-17.59,39.55-39.24,39.55
			C62.35,123.29,44.76,105.55,44.76,83.73z"/>
		
			<linearGradient id="SVGID_19_" gradientUnits="userSpaceOnUse" x1="-298.5827" y1="171.3485" x2="-268.5381" y2="253.8953" gradientTransform="matrix(0.8571 0.1429 -0.1429 0.8571 357.4189 -58.0051)">
			<stop  offset="0.1" style="stop-color:#A8A8A9"/>
			<stop  offset="0.9" style="stop-color:#B8B8B8"/>
		</linearGradient>
		<path class="st19" d="M46.12,83.73c0-21.06,16.98-38.17,37.87-38.17c20.89,0,37.87,17.12,37.87,38.17
			c0,21.06-16.98,38.17-37.87,38.17S46.12,104.79,46.12,83.73z"/>
		
			<linearGradient id="SVGID_20_" gradientUnits="userSpaceOnUse" x1="-168.4014" y1="113.568" x2="-140.7461" y2="189.5505" gradientTransform="matrix(0.9048 0.0952 -0.0952 0.9048 238.2793 -38.67)">
			<stop  offset="0.1" style="stop-color:#A9A9AA"/>
			<stop  offset="0.9" style="stop-color:#B4B4B4"/>
		</linearGradient>
		<path class="st20" d="M47.49,83.73c0-20.29,16.37-36.79,36.5-36.79c20.13,0,36.5,16.5,36.5,36.79c0,20.29-16.37,36.79-36.5,36.79
			C63.86,120.53,47.49,104.03,47.49,83.73z"/>
		
			<linearGradient id="SVGID_21_" gradientUnits="userSpaceOnUse" x1="-44.1094" y1="74.9145" x2="-18.72" y2="144.6713" gradientTransform="matrix(0.9524 0.0476 -0.0476 0.9524 119.1396 -19.335)">
			<stop  offset="0.1" style="stop-color:#ABABAB"/>
			<stop  offset="0.9" style="stop-color:#B0B0B0"/>
		</linearGradient>
		<path class="st21" d="M48.86,83.73c0-19.53,15.76-35.41,35.13-35.41c19.37,0,35.13,15.88,35.13,35.41
			c0,19.53-15.76,35.41-35.13,35.41C64.62,119.15,48.86,103.26,48.86,83.73z"/>
		<path class="st22" d="M50.23,83.73c0-18.77,15.15-34.03,33.76-34.03c18.62,0,33.76,15.27,33.76,34.03
			c0,18.77-15.15,34.03-33.76,34.03S50.23,102.5,50.23,83.73z"/>
	</g>
</g>
<path class="st23" d="M114.06,83.72l-24.99-27.4v16.35h-5.31c-16.47,0-29.83,13.35-29.83,29.83v8.66l2.36-2.59
	c8.02-8.79,19.37-13.8,31.27-13.8h1.5v16.35L114.06,83.72z"/>
</svg>
